<?xml version="1.0" encoding="UTF-8"?>
<svg version="1.1" xmlns="http://www.w3.org/2000/svg" width="330" height="120">
<path d="M0 0 C7.33939041 6.26103919 12.9499052 13.24150759 14.98046875 22.78515625 C14.32046875 22.78515625 13.66046875 22.78515625 12.98046875 22.78515625 C12.48546875 23.77515625 12.48546875 23.77515625 11.98046875 24.78515625 C11.02140625 25.65140625 11.02140625 25.65140625 10.04296875 26.53515625 C6.64468419 30.24237577 5.99693301 34.10110102 5.60546875 38.97265625 C5.08498074 44.52768288 3.36362743 49.74904735 0.98046875 54.78515625 C-0.00953125 55.28015625 -0.00953125 55.28015625 -1.01953125 55.78515625 C-1.26703125 56.38328125 -1.51453125 56.98140625 -1.76953125 57.59765625 C-3.67140562 60.92593639 -5.59593037 62.04332422 -9.01953125 63.78515625 C-12.68116437 64.394589 -16.3121805 64.65322206 -20.01953125 64.78515625 C-20.01953125 63.79515625 -20.01953125 62.80515625 -20.01953125 61.78515625 C-19.05015625 60.98078125 -18.08078125 60.17640625 -17.08203125 59.34765625 C-13.93901325 57.14317017 -13.93901325 57.14317017 -13.14453125 54.47265625 C-13.10328125 53.91578125 -13.06203125 53.35890625 -13.01953125 52.78515625 C-14.00953125 54.76515625 -14.00953125 54.76515625 -15.01953125 56.78515625 C-15.67953125 56.78515625 -16.33953125 56.78515625 -17.01953125 56.78515625 C-17.01953125 57.44515625 -17.01953125 58.10515625 -17.01953125 58.78515625 C-22.40780205 61.75296229 -27.68690861 62.18051602 -33.70703125 61.16015625 C-38.64611629 59.10997001 -41.8375045 56.47939459 -44.89453125 52.09765625 C-46.75539225 46.6184544 -47.32749387 41.61907526 -44.84765625 36.24609375 C-41.47049289 30.90181977 -38.41764649 27.78914484 -32.26953125 25.97265625 C-26.39614633 25.63380712 -21.74932913 26.68739991 -16.76953125 29.84765625 C-13.20872419 33.14985721 -11.14056832 37.47738627 -9.01953125 41.78515625 C-9.01953125 40.79515625 -9.01953125 39.80515625 -9.01953125 38.78515625 C-8.35953125 38.78515625 -7.69953125 38.78515625 -7.01953125 38.78515625 C-6.68953125 36.14515625 -6.35953125 33.50515625 -6.01953125 30.78515625 C-5.35953125 30.78515625 -4.69953125 30.78515625 -4.01953125 30.78515625 C-3.79265625 30.22828125 -3.56578125 29.67140625 -3.33203125 29.09765625 C-1.61541217 26.07313691 0.34652712 24.05157114 2.98046875 21.78515625 C5.6484375 21.140625 5.6484375 21.140625 7.98046875 20.78515625 C1.51262584 8.40748041 -7.58331815 0.62828285 -20.9375 -3.859375 C-30.42213834 -5.4787035 -41.05081836 -4.69381067 -50.01953125 -1.21484375 C-50.34953125 -0.55484375 -50.67953125 0.10515625 -51.01953125 0.78515625 C-52.74382847 1.77503058 -54.47048095 2.76257024 -56.23046875 3.6875 C-58.15236383 4.86665397 -59.4886185 6.13521812 -61.01953125 7.78515625 C-61.50292969 8.29433594 -61.98632812 8.80351562 -62.484375 9.328125 C-66.6775723 14.01071402 -71.01953125 19.26304631 -71.01953125 25.78515625 C-71.67953125 25.78515625 -72.33953125 25.78515625 -73.01953125 25.78515625 C-73.45281507 41.05007856 -73.32196019 52.95868738 -64.01953125 65.78515625 C-63.35953125 66.11515625 -62.69953125 66.44515625 -62.01953125 66.78515625 C-61.68953125 66.12515625 -61.35953125 65.46515625 -61.01953125 64.78515625 C-59.02324461 64.43026085 -57.02262454 64.09936696 -55.01953125 63.78515625 C-54.40078125 63.43453125 -53.78203125 63.08390625 -53.14453125 62.72265625 C-49.68532241 61.1965347 -46.66817754 61.09487182 -43.01953125 61.78515625 C-40.91088511 62.70855031 -38.82896482 63.69417266 -36.76953125 64.72265625 C-30.46367361 67.85714689 -25.01499159 68.75994738 -18.01953125 68.78515625 C-18.01953125 69.44515625 -18.01953125 70.10515625 -18.01953125 70.78515625 C-17.02953125 70.78515625 -16.03953125 70.78515625 -15.01953125 70.78515625 C-14.68953125 71.44515625 -14.35953125 72.10515625 -14.01953125 72.78515625 C-11.04887616 72.44288053 -11.04887616 72.44288053 -8.01953125 71.78515625 C-7.68953125 71.12515625 -7.35953125 70.46515625 -7.01953125 69.78515625 C-3.56623399 68.05850762 -0.86122283 67.56563102 2.98046875 67.78515625 C3.31046875 68.77515625 3.64046875 69.76515625 3.98046875 70.78515625 C-4.36929983 79.94296695 -14.79543605 85.35192434 -27.28125 86.1328125 C-35.23429783 86.39662435 -42.58684484 85.83088113 -50.01953125 82.78515625 C-50.839375 82.49125 -51.65921875 82.19734375 -52.50390625 81.89453125 C-56.10458782 80.30665304 -58.84138364 77.95939977 -61.8828125 75.49609375 C-64.05445269 73.70001199 -64.05445269 73.70001199 -66.70703125 72.03515625 C-70.57857199 68.26825174 -72.69709544 63.61455018 -75.01953125 58.78515625 C-75.43847656 57.96144531 -75.85742188 57.13773437 -76.2890625 56.2890625 C-81.36027869 44.80266823 -80.48759418 30.19311657 -76.27734375 18.578125 C-70.7664286 6.34115503 -61.01002021 -3.39187637 -48.40625 -8.21484375 C-30.31557794 -13.9247979 -15.02698643 -11.02238203 0 0 Z " fill="#475761" transform="translate(79.01953125,12.21484375)"/>
<path d="M0 0 C1.485 0.99 1.485 0.99 3 2 C2.67 2.33 2.34 2.66 2 3 C2.49311021 5.51395449 3.05101169 7.95910384 3.6875 10.4375 C3.87248047 11.16308105 4.05746094 11.88866211 4.24804688 12.63623047 C6.36467161 20.7027232 8.86656588 28.32653564 14 35 C14.66 35.33 15.32 35.66 16 36 C16.33 35.34 16.66 34.68 17 34 C18.99628664 33.6451046 20.99690671 33.31421071 23 33 C23.61875 32.649375 24.2375 32.29875 24.875 31.9375 C28.33420884 30.41137845 31.35135371 30.30971557 35 31 C37.10864614 31.92339406 39.19056643 32.90901641 41.25 33.9375 C47.55585764 37.07199064 53.00453966 37.97479113 60 38 C60 38.66 60 39.32 60 40 C60.99 40 61.98 40 63 40 C63.33 40.66 63.66 41.32 64 42 C66.97065509 41.65772428 66.97065509 41.65772428 70 41 C70.495 40.01 70.495 40.01 71 39 C74.45329726 37.27335137 77.15830842 36.78047477 81 37 C81.33 37.99 81.66 38.98 82 40 C73.65023142 49.1578107 63.2240952 54.56676809 50.73828125 55.34765625 C42.78523342 55.6114681 35.43268641 55.04572488 28 52 C27.18015625 51.70609375 26.3603125 51.4121875 25.515625 51.109375 C21.91494343 49.52149679 19.17814761 47.17424352 16.13671875 44.7109375 C13.96507856 42.91485574 13.96507856 42.91485574 11.3125 41.25 C7.44309706 37.48517552 5.31406927 32.83101584 3 28 C2.58105469 27.14148438 2.16210938 26.28296875 1.73046875 25.3984375 C-1.67080202 17.44210799 -1.63113981 9.50486764 -1 1 C-0.67 0.67 -0.34 0.34 0 0 Z " fill="#4F606B" transform="translate(1,43)"/>
<path d="M0 0 C4.01264282 4.39479928 6.74803597 8.8294003 7.1875 14.875 C6.9559979 19.54208225 4.66870056 23.40702602 1.625 26.875 C0.965 26.875 0.305 26.875 -0.375 26.875 C-0.375 27.535 -0.375 28.195 -0.375 28.875 C-5.7632708 31.84280604 -11.04237736 32.27035977 -17.0625 31.25 C-22.00158504 29.19981376 -25.19297325 26.56923834 -28.25 22.1875 C-30.110861 16.70829815 -30.68296262 11.70891901 -28.203125 6.3359375 C-25.00130817 1.26914489 -21.99716626 -2.19531066 -16.03125 -3.7265625 C-10.19854262 -4.60146861 -4.92989756 -3.10400957 0 0 Z " fill="#F58F35" transform="translate(62.375,42.125)"/>
<path d="M0 0 C0.33 0.66 0.66 1.32 1 2 C1.99 1.67 2.98 1.34 4 1 C5.625 3.125 5.625 3.125 7 6 C6.25 8.75 6.25 8.75 5 12 C4.84194963 13.39247828 4.71970976 14.7892848 4.625 16.1875 C4.10451199 21.74252663 2.38315868 26.9638911 0 32 C-0.99 32.495 -0.99 32.495 -2 33 C-2.2475 33.598125 -2.495 34.19625 -2.75 34.8125 C-4.65187437 38.14078014 -6.57639912 39.25816797 -10 41 C-13.66163312 41.60943275 -17.29264925 41.86806581 -21 42 C-21 41.01 -21 40.02 -21 39 C-20.071875 38.29875 -19.14375 37.5975 -18.1875 36.875 C-12.10609137 32.09572828 -11.44655416 23.19873425 -10 16 C-9.34 16 -8.68 16 -8 16 C-7.67 13.36 -7.34 10.72 -7 8 C-6.34 8 -5.68 8 -5 8 C-4.731875 7.4225 -4.46375 6.845 -4.1875 6.25 C-2.98280141 3.9674132 -1.59201885 2.0262058 0 0 Z " fill="#51626D" transform="translate(80,35)"/>
<path d="M0 0 C1.890625 0.234375 1.890625 0.234375 4 1 C6.32767422 5.20371015 7.46328919 10.21267836 7 15 C7.66 15.33 8.32 15.66 9 16 C9 17.98 9 19.96 9 22 C8.43410156 22.19335938 7.86820313 22.38671875 7.28515625 22.5859375 C6.18494141 22.97652344 6.18494141 22.97652344 5.0625 23.375 C4.33160156 23.63023438 3.60070312 23.88546875 2.84765625 24.1484375 C0.81317884 24.85271413 0.81317884 24.85271413 0 27 C-0.66 27 -1.32 27 -2 27 C-2 27.66 -2 28.32 -2 29 C-3.65 29.33 -5.3 29.66 -7 30 C-7 31.98 -7 33.96 -7 36 C-8.734375 37.1171875 -8.734375 37.1171875 -11 38 C-13.140625 37.3203125 -13.140625 37.3203125 -15.25 36.125 C-15.95640625 35.73570313 -16.6628125 35.34640625 -17.390625 34.9453125 C-17.92171875 34.63335937 -18.4528125 34.32140625 -19 34 C-19 33.01 -19 32.02 -19 31 C-19.99 31.33 -20.98 31.66 -22 32 C-22.33 31.01 -22.66 30.02 -23 29 C-25.01508358 28.26676204 -25.01508358 28.26676204 -27 28 C-27 26.68 -27 25.36 -27 24 C-21.40595005 24.68220121 -17.01286988 26.49356506 -12 29 C-10.68 29 -9.36 29 -8 29 C-8.41713188 24.1334614 -10.45465326 22.20769467 -14 19 C-14.598125 18.525625 -15.19625 18.05125 -15.8125 17.5625 C-17.64443328 15.15206148 -17.19479285 12.92189274 -17 10 C-15.35 9.67 -13.7 9.34 -12 9 C-11.566875 9.804375 -11.13375 10.60875 -10.6875 11.4375 C-9.19525998 14.27846354 -9.19525998 14.27846354 -6 15 C-5.67 16.65 -5.34 18.3 -5 20 C-4.38125 20.144375 -3.7625 20.28875 -3.125 20.4375 C-1 21 -1 21 1 22 C0.81535634 17.65815798 0.81535634 17.65815798 -1 14 C-2.00994818 8.58300519 -2.20836941 5.19616332 0 0 Z " fill="#D28A52" transform="translate(38,12)"/>
<path d="M0 0 C2.25 1.8125 2.25 1.8125 4.25 3.8125 C4.848125 3.173125 5.44625 2.53375 6.0625 1.875 C8.25 -0.1875 8.25 -0.1875 11.25 -1.1875 C11.25 -0.5275 11.25 0.1325 11.25 0.8125 C12.03375 0.915625 12.8175 1.01875 13.625 1.125 C16.25 1.8125 16.25 1.8125 18.25 4.8125 C18.58 3.1625 18.91 1.5125 19.25 -0.1875 C20.24 0.1425 21.23 0.4725 22.25 0.8125 C22.745 6.7525 22.745 6.7525 23.25 12.8125 C25.23 12.8125 27.21 12.8125 29.25 12.8125 C29.745 14.2975 29.745 14.2975 30.25 15.8125 C29.25 16.8125 29.25 16.8125 26.96484375 16.91015625 C26.04832031 16.89855469 25.13179688 16.88695313 24.1875 16.875 C23.26839844 16.86597656 22.34929687 16.85695313 21.40234375 16.84765625 C20.69207031 16.83605469 19.98179687 16.82445313 19.25 16.8125 C18.755 14.3375 18.755 14.3375 18.25 11.8125 C17.92 12.8025 17.59 13.7925 17.25 14.8125 C13.53986601 17.28592266 11.63939738 17.19753486 7.25 16.8125 C4.8125 15.3125 4.8125 15.3125 3.25 13.8125 C2.8375 14.286875 2.425 14.76125 2 15.25 C-0.03276455 17.06496835 -1.02836946 17.65240409 -3.75 17.8125 C-6.78625063 16.51124973 -8.36912902 15.39208628 -10.1875 12.625 C-10.98299089 8.64754556 -10.5480537 5.46356973 -8.75 1.8125 C-5.37218674 -0.81468809 -4.01632647 -1.73432279 0 0 Z M-4.75 3.8125 C-6.57660197 7.93398343 -6.57660197 7.93398343 -5.875 12.1875 C-5.50375 12.72375 -5.1325 13.26 -4.75 13.8125 C-3.76 13.8125 -2.77 13.8125 -1.75 13.8125 C-1.255 13.3175 -0.76 12.8225 -0.25 12.3125 C0.245 11.8175 0.74 11.3225 1.25 10.8125 C2.24 10.8125 3.23 10.8125 4.25 10.8125 C3.92 9.1625 3.59 7.5125 3.25 5.8125 C1.93 6.1425 0.61 6.4725 -0.75 6.8125 C-1.08 5.8225 -1.41 4.8325 -1.75 3.8125 C-2.74 3.8125 -3.73 3.8125 -4.75 3.8125 Z M9.25 3.8125 C7.0980563 7.04041555 7.04913557 8.09650809 7.25 11.8125 C9.13316159 12.92086423 9.13316159 12.92086423 11.25 13.8125 C11.91 13.4825 12.57 13.1525 13.25 12.8125 C13.25 10.1725 13.25 7.5325 13.25 4.8125 C11.93 4.4825 10.61 4.1525 9.25 3.8125 Z M17.25 6.8125 C17.91 7.4725 18.57 8.1325 19.25 8.8125 C19.25 8.1525 19.25 7.4925 19.25 6.8125 C18.59 6.8125 17.93 6.8125 17.25 6.8125 Z " fill="#474E54" transform="translate(248.75,81.1875)"/>
<path d="M0 0 C1.65 0.99 3.3 1.98 5 3 C4 6 4 6 3 7 C3.66 7.33 4.32 7.66 5 8 C5.33 8.33 5.66 8.66 6 9 C6.33 6.36 6.66 3.72 7 1 C7.99 0.67 8.98 0.34 10 0 C10.99 1.65 11.98 3.3 13 5 C13.268125 4.360625 13.53625 3.72125 13.8125 3.0625 C15 1 15 1 18 0 C18 0.66 18 1.32 18 2 C18.66 2.33 19.32 2.66 20 3 C20 3.33 20 3.66 20 4 C21.32 2.68 22.64 1.36 24 0 C24.99 0.33 25.98 0.66 27 1 C28.010625 0.979375 29.02125 0.95875 30.0625 0.9375 C33 1 33 1 35 3 C34.8125 5 34.8125 5 34 7 C33.01 7.66 32.02 8.32 31 9 C31.495 9.99 31.495 9.99 32 11 C28.91190305 12.76462683 27.76687864 13 24 13 C22.65035156 13.01740234 22.65035156 13.01740234 21.2734375 13.03515625 C20.31695312 13.04417969 19.36046875 13.05320312 18.375 13.0625 C17.41335938 13.07410156 16.45171875 13.08570312 15.4609375 13.09765625 C13 13 13 13 11 12 C11 11.01 11 10.02 11 9 C10.01 10.485 10.01 10.485 9 12 C6.00919805 13.03414763 3.1468912 13.27128372 0 13 C-3.30568681 10.70625813 -4.6907457 9.29886807 -5.625 5.375 C-5 3 -5 3 -2.5 1.1875 C-1.675 0.795625 -0.85 0.40375 0 0 Z M25 3 C25 4.98 25 6.96 25 9 C25.66 8.67 26.32 8.34 27 8 C27 6.35 27 4.7 27 3 C26.34 3 25.68 3 25 3 Z M-1 5 C-1.33 5.66 -1.66 6.32 -2 7 C-1.01 7.99 -0.02 8.98 1 10 C1.33 9.34 1.66 8.68 2 8 C1.34 8 0.68 8 0 8 C-0.33 7.01 -0.66 6.02 -1 5 Z M9 5 C10 7 10 7 10 7 Z M22 6 C23 9 23 9 23 9 Z M13 9 C13 9.66 13 10.32 13 11 C13.66 10.67 14.32 10.34 15 10 C14.34 9.67 13.68 9.34 13 9 Z M22 10 C23 12 23 12 23 12 Z " fill="#212122" transform="translate(277,106)"/>
<path d="M0 0 C0.33 0.66 0.66 1.32 1 2 C1.33 1.34 1.66 0.68 2 0 C4.4375 -0.75 4.4375 -0.75 7 -1 C7.66 -0.34 8.32 0.32 9 1 C10.65 0.34 12.3 -0.32 14 -1 C14.33 -0.34 14.66 0.32 15 1 C15.33 0.67 15.66 0.34 16 0 C22.38873239 -0.47323944 22.38873239 -0.47323944 24.9375 1.5 C25.288125 1.995 25.63875 2.49 26 3 C26 2.01 26 1.02 26 0 C26.99 0 27.98 0 29 0 C29.25 5.625 29.25 5.625 27 9 C27 9.66 27 10.32 27 11 C25.68 11.33 24.36 11.66 23 12 C22.06576355 8.98968256 21.95550089 8.13349732 23 5 C22.01 5.495 22.01 5.495 21 6 C20.34444881 8.52733235 20.34444881 8.52733235 20 11 C15.61319392 11.94002987 12.38577781 11.74651537 8 11 C5.23135047 11.36858988 5.23135047 11.36858988 3 12 C3 11.34 3 10.68 3 10 C2.01 10 1.02 10 0 10 C-0.33 10.66 -0.66 11.32 -1 12 C-5 12 -5 12 -8 11 C-9.28571429 3.57142857 -9.28571429 3.57142857 -8 0 C-4.97878489 -0.97110486 -2.99536737 -1.13617383 0 0 Z M19 1 C19.66 1.66 20.32 2.32 21 3 C21 2.34 21 1.68 21 1 C20.34 1 19.68 1 19 1 Z M-4 2 C-4.33 2.66 -4.66 3.32 -5 4 C-4.01 3.67 -3.02 3.34 -2 3 C-2.66 2.67 -3.32 2.34 -4 2 Z M4 2 C3.67 3.98 3.34 5.96 3 8 C4.32 8.33 5.64 8.66 7 9 C7 7.02 7 5.04 7 3 C6.01 2.67 5.02 2.34 4 2 Z M10 2 C10 3.98 10 5.96 10 8 C10.33 8 10.66 8 11 8 C11 6.02 11 4.04 11 2 C10.67 2 10.34 2 10 2 Z M16 2 C17 5 17 5 17 5 Z M13 5 C14 7 14 7 14 7 Z M-5 6 C-4 8 -4 8 -4 8 Z M-1 7 C-1 7.66 -1 8.32 -1 9 C-0.34 8.67 0.32 8.34 1 8 C0.34 7.67 -0.32 7.34 -1 7 Z M13 8 C13 8.66 13 9.32 13 10 C13.99 9.67 14.98 9.34 16 9 C15.01 8.67 14.02 8.34 13 8 Z M-5 9 C-4 11 -4 11 -4 11 Z " fill="#2F2E2F" transform="translate(47,107)"/>
<path d="M0 0 C1.17369141 0.29970703 1.17369141 0.29970703 2.37109375 0.60546875 C3.15613281 0.79753906 3.94117187 0.98960938 4.75 1.1875 C6.80859375 1.79296875 6.80859375 1.79296875 8.80859375 2.79296875 C8.80859375 2.13296875 8.80859375 1.47296875 8.80859375 0.79296875 C11.18359375 1.10546875 11.18359375 1.10546875 13.80859375 1.79296875 C14.79859375 3.27796875 14.79859375 3.27796875 15.80859375 4.79296875 C17.12859375 3.47296875 18.44859375 2.15296875 19.80859375 0.79296875 C20.46859375 1.45296875 21.12859375 2.11296875 21.80859375 2.79296875 C21.79111487 5.38566858 21.67090783 7.84548415 21.43359375 10.41796875 C21.376875 11.124375 21.32015625 11.83078125 21.26171875 12.55859375 C21.12018454 14.30418236 20.96561988 16.04870548 20.80859375 17.79296875 C19.81859375 18.12296875 18.82859375 18.45296875 17.80859375 18.79296875 C15.68359375 17.66796875 15.68359375 17.66796875 13.80859375 15.79296875 C13.05859375 13.10546875 13.05859375 13.10546875 12.80859375 10.79296875 C12.47859375 13.10296875 12.14859375 15.41296875 11.80859375 17.79296875 C11.16921875 17.60734375 10.52984375 17.42171875 9.87109375 17.23046875 C8.85015625 17.01390625 8.85015625 17.01390625 7.80859375 16.79296875 C7.47859375 17.12296875 7.14859375 17.45296875 6.80859375 17.79296875 C5.12675427 18.02583883 3.43735215 18.20561041 1.74609375 18.35546875 C0.36744141 18.48115234 0.36744141 18.48115234 -1.0390625 18.609375 C-1.74933594 18.66996094 -2.45960937 18.73054688 -3.19140625 18.79296875 C-5.38056465 15.25193963 -5.48996502 12.28528002 -5.50390625 8.16796875 C-5.52066406 7.02070312 -5.53742188 5.8734375 -5.5546875 4.69140625 C-5.43480469 3.73492187 -5.31492187 2.7784375 -5.19140625 1.79296875 C-2.19140625 -0.20703125 -2.19140625 -0.20703125 0 0 Z M-0.19140625 4.79296875 C-0.19140625 5.78296875 -0.19140625 6.77296875 -0.19140625 7.79296875 C0.61296875 7.91671875 1.41734375 8.04046875 2.24609375 8.16796875 C3.51453125 8.47734375 3.51453125 8.47734375 4.80859375 8.79296875 C5.13859375 9.45296875 5.46859375 10.11296875 5.80859375 10.79296875 C3.82859375 10.79296875 1.84859375 10.79296875 -0.19140625 10.79296875 C-0.19140625 12.11296875 -0.19140625 13.43296875 -0.19140625 14.79296875 C2.44859375 15.12296875 5.08859375 15.45296875 7.80859375 15.79296875 C8.58702313 12.38734023 8.90837496 9.28531119 8.80859375 5.79296875 C4.32725801 5.07040046 4.32725801 5.07040046 -0.19140625 4.79296875 Z M15.80859375 5.79296875 C16.80859375 7.79296875 16.80859375 7.79296875 16.80859375 7.79296875 Z " fill="#4D585F" transform="translate(101.19140625,80.20703125)"/>
<path d="M0 0 C1.28015115 0.37513587 2.57088431 0.71929348 3.875 1 C4.205 0.67 4.535 0.34 4.875 0 C5.535 -0.33 6.195 -0.66 6.875 -1 C7.535 -0.34 8.195 0.32 8.875 1 C9.865 0.34 10.855 -0.32 11.875 -1 C13.9375 -0.5625 13.9375 -0.5625 15.875 0 C16.535 -0.33 17.195 -0.66 17.875 -1 C19.58202735 -1.06996014 21.29168003 -1.08440154 23 -1.0625 C23.91007812 -1.05347656 24.82015625 -1.04445313 25.7578125 -1.03515625 C26.80582031 -1.01775391 26.80582031 -1.01775391 27.875 -1 C27.93558594 -0.38511719 27.99617188 0.22976562 28.05859375 0.86328125 C28.14238281 1.67152344 28.22617188 2.47976562 28.3125 3.3125 C28.39371094 4.11300781 28.47492188 4.91351563 28.55859375 5.73828125 C28.82765693 8.16087179 28.82765693 8.16087179 29.875 11 C28.76125 10.979375 27.6475 10.95875 26.5 10.9375 C23.04284079 10.73619282 23.04284079 10.73619282 20.875 12 C19.885 11.34 18.895 10.68 17.875 10 C18.060625 9.401875 18.24625 8.80375 18.4375 8.1875 C19.09593687 5.83591238 19.09593687 5.83591238 17.875 3 C16.885 3.495 16.885 3.495 15.875 4 C16.2153125 5.1446875 16.2153125 5.1446875 16.5625 6.3125 C16.875 9 16.875 9 15.8125 10.875 C12.95444724 12.5345145 11.02494365 11.70713021 7.875 11 C6.555 11 5.235 11 3.875 11 C3.875 10.34 3.875 9.68 3.875 9 C2.555 9.99 1.235 10.98 -0.125 12 C-1.5856285 9.35261084 -2.125 8.10551666 -2.125 5 C-2.785 7.31 -3.445 9.62 -4.125 12 C-4.455 12 -4.785 12 -5.125 12 C-5.125 9.36 -5.125 6.72 -5.125 4 C-6.115 4.33 -7.105 4.66 -8.125 5 C-7.795 3.35 -7.465 1.7 -7.125 0 C-3.88625483 -1.07958172 -3.13159708 -0.9244567 0 0 Z M24.875 0 C22.82229537 1.84188612 22.82229537 1.84188612 21.875 4 C22.535 4 23.195 4 23.875 4 C23.875 5.32 23.875 6.64 23.875 8 C24.535 7.67 25.195 7.34 25.875 7 C25.875 4.69 25.875 2.38 25.875 0 C25.545 0 25.215 0 24.875 0 Z M6.875 2 C6.875 3.98 6.875 5.96 6.875 8 C8.525 7.67 10.175 7.34 11.875 7 C10.885 6.67 9.895 6.34 8.875 6 C8.1875 3.9375 8.1875 3.9375 7.875 2 C7.545 2 7.215 2 6.875 2 Z M11.875 2 C11.545 2.66 11.215 3.32 10.875 4 C11.535 4 12.195 4 12.875 4 C12.545 3.34 12.215 2.68 11.875 2 Z M0.875 4 C1.875 7 1.875 7 1.875 7 Z M21.875 7 C22.875 10 22.875 10 22.875 10 Z " fill="#272627" transform="translate(86.125,107)"/>
<path d="M0 0 C4.17805999 0.5470455 7.87539841 0.30064363 12.02734375 -0.34375 C13.875 -0.5 13.875 -0.5 15.875 0.5 C15.545 2.15 15.215 3.8 14.875 5.5 C14.545 4.84 14.215 4.18 13.875 3.5 C11.895 4.49 11.895 4.49 9.875 5.5 C12.35 5.995 12.35 5.995 14.875 6.5 C14.875 7.16 14.875 7.82 14.875 8.5 C15.535 8.83 16.195 9.16 16.875 9.5 C14.565 9.83 12.255 10.16 9.875 10.5 C9.875 11.16 9.875 11.82 9.875 12.5 C11.855 12.5 13.835 12.5 15.875 12.5 C15.875 13.82 15.875 15.14 15.875 16.5 C10.49590008 17.62585812 10.49590008 17.62585812 7.5625 17.03125 C4.50228762 16.4263243 1.67921877 16.40325034 -1.4375 16.4375 C-3.04044922 16.45103516 -3.04044922 16.45103516 -4.67578125 16.46484375 C-5.48402344 16.47644531 -6.29226562 16.48804687 -7.125 16.5 C-7.32172365 14.77185839 -7.50696799 13.04240803 -7.6875 11.3125 C-7.84412109 9.86810547 -7.84412109 9.86810547 -8.00390625 8.39453125 C-8.12258751 5.55766623 -7.80265639 3.24576329 -7.125 0.5 C-4.08147495 -0.51450835 -3.04578673 -0.48033913 0 0 Z M1.4375 3 C-1.125 3.5 -1.125 3.5 -3.125 3.5 C-3.125 4.49 -3.125 5.48 -3.125 6.5 C-1.475 6.5 0.175 6.5 1.875 6.5 C1.875 7.49 1.875 8.48 1.875 9.5 C0.225 9.5 -1.425 9.5 -3.125 9.5 C-3.125 10.82 -3.125 12.14 -3.125 13.5 C0.29156024 13.66677282 0.29156024 13.66677282 3.875 13.5 C4.535 12.84 5.195 12.18 5.875 11.5 C5.89808597 9.27871445 5.89808597 9.27871445 5.5 6.875 C5.38914063 6.05773437 5.27828125 5.24046875 5.1640625 4.3984375 C5.06867188 3.77195312 4.97328125 3.14546875 4.875 2.5 C3.62355817 2.46650931 3.62355817 2.46650931 1.4375 3 Z " fill="#49535B" transform="translate(167.125,81.5)"/>
<path d="M0 0 C1.9998391 0.26227398 3.99947269 0.52675817 5.99609375 0.8125 C8.2127472 1.01990617 9.88456699 0.65090246 12 0 C12.66 0.33 13.32 0.66 14 1 C14 3.97 14 6.94 14 10 C14.12375 9.278125 14.2475 8.55625 14.375 7.8125 C14.9904931 5.04278106 15.88444374 2.6029646 17 0 C26.41002278 -0.18451025 26.41002278 -0.18451025 31 1 C31 3.31 31 5.62 31 8 C29.68 8 28.36 8 27 8 C26.67 9.65 26.34 11.3 26 13 C23.63158688 11.42105792 21.93254772 10.0245738 20 8 C19.896875 8.639375 19.79375 9.27875 19.6875 9.9375 C19.460625 10.618125 19.23375 11.29875 19 12 C16 13 16 13 12 13 C12 12.01 12 11.02 12 10 C9.69 11.32 7.38 12.64 5 14 C4.67 13.34 4.34 12.68 4 12 C1.67843403 11.59270772 -0.6568787 11.25561323 -3 11 C-3.33 9.35 -3.66 7.7 -4 6 C-3.34 6 -2.68 6 -2 6 C-1.855625 5.195625 -1.71125 4.39125 -1.5625 3.5625 C-1 1 -1 1 0 0 Z M2 4 C2 4.66 2 5.32 2 6 C3.32 6.33 4.64 6.66 6 7 C6.66 5.68 7.32 4.36 8 3 C5.84365964 3 4.07553648 3.4465236 2 4 Z M23 2 C21.35 2.33 19.7 2.66 18 3 C18 3.66 18 4.32 18 5 C20.97 5.495 20.97 5.495 24 6 C23.67 4.68 23.34 3.36 23 2 Z M27 3 C27 3.66 27 4.32 27 5 C27.66 5 28.32 5 29 5 C29 4.34 29 3.68 29 3 C28.34 3 27.68 3 27 3 Z M23 7 C24 9 24 9 24 9 Z " fill="#2F2F30" transform="translate(7,106)"/>
<path d="M0 0 C0.99 0 1.98 0 3 0 C3.185625 0.9590625 3.185625 0.9590625 3.375 1.9375 C3.684375 2.9584375 3.684375 2.9584375 4 4 C4.66 4.33 5.32 4.66 6 5 C6 3.68 6 2.36 6 1 C10.33333333 1 14.66666667 1 19 1 C19.33 1.66 19.66 2.32 20 3 C20.66 2.34 21.32 1.68 22 1 C24.625 0.375 24.625 0.375 27 0 C29.47666082 3.71499122 29.54886514 5.60907888 29 10 C26.8125 12 26.8125 12 24 13 C21.375 12.625 21.375 12.625 19 12 C18.01 12.33 17.02 12.66 16 13 C15.34 12.34 14.68 11.68 14 11 C14 11.33 14 11.66 14 12 C11.36 12 8.72 12 6 12 C5.67 11.01 5.34 10.02 5 9 C4.67 9.99 4.34 10.98 4 12 C3.01 12.33 2.02 12.66 1 13 C0 12 0 12 -0.09765625 9.27734375 C-0.08605469 8.17519531 -0.07445312 7.07304688 -0.0625 5.9375 C-0.05347656 4.83277344 -0.04445312 3.72804688 -0.03515625 2.58984375 C-0.02355469 1.73519531 -0.01195312 0.88054687 0 0 Z M24 3 C22.99782936 6.58327753 22.99782936 6.58327753 24 10 C24.66 9.67 25.32 9.34 26 9 C26.65213292 6.97536745 26.65213292 6.97536745 27 5 C26.01 4.34 25.02 3.68 24 3 Z M15 5 C15.66 5.66 16.32 6.32 17 7 C17 6.34 17 5.68 17 5 C16.34 5 15.68 5 15 5 Z " fill="#303031" transform="translate(203,106)"/>
<path d="M0 0 C0.99 0.66 1.98 1.32 3 2 C2.67 4.31 2.34 6.62 2 9 C3.65 9.33 5.3 9.66 7 10 C6.979375 8.88625 6.95875 7.7725 6.9375 6.625 C7 3 7 3 8 1 C9.6396875 1.2475 9.6396875 1.2475 11.3125 1.5 C14.87525873 2.06718184 14.87525873 2.06718184 18 2 C18.66 1.34 19.32 0.68 20 0 C22.625 0.375 22.625 0.375 25 1 C25.335939 2.4577353 25.66866624 3.91621106 26 5.375 C26.185625 6.18710938 26.37125 6.99921875 26.5625 7.8359375 C27 10 27 10 27 12 C23.33694766 12.74926071 20.57644848 13.2380014 17 12 C17 11.34 17 10.68 17 10 C15.9171875 10.7734375 15.9171875 10.7734375 14.8125 11.5625 C11.43633986 13.28809296 10.57714136 12.85170032 7 12 C4.66365343 12.31151288 2.32961443 12.64159778 0 13 C-1.73956658 11.26043342 -1.37190386 8.8063378 -1.5625 6.4375 C-1.64628906 5.42558594 -1.73007813 4.41367188 -1.81640625 3.37109375 C-1.87699219 2.58863281 -1.93757812 1.80617188 -2 1 C-1.34 0.67 -0.68 0.34 0 0 Z M10 3 C10.33 4.32 10.66 5.64 11 7 C10.01 7.495 10.01 7.495 9 8 C10.98 8.99 10.98 8.99 13 10 C13 8.02 13 6.04 13 4 C12.01 3.67 11.02 3.34 10 3 Z M16 5 C17 9 17 9 17 9 Z " fill="#2A2829" transform="translate(234,106)"/>
<path d="M0 0 C1.051875 -0.01417969 2.10375 -0.02835937 3.1875 -0.04296875 C6 0.1875 6 0.1875 9 2.1875 C9.86625 1.6615625 9.86625 1.6615625 10.75 1.125 C13 0.1875 13 0.1875 17 1.1875 C17 4.4875 17 7.7875 17 11.1875 C13.62902617 12.68571059 11.79557881 13.1875 8 13.1875 C6.989375 13.249375 5.97875 13.31125 4.9375 13.375 C2 13.1875 2 13.1875 0.0625 12.0625 C-1.52513015 9.26079973 -0.74070176 7.21764356 0 4.1875 C-0.66 4.1875 -1.32 4.1875 -2 4.1875 C-2.33 4.8475 -2.66 5.5075 -3 6.1875 C-2.34 6.5175 -1.68 6.8475 -1 7.1875 C-1.99 9.1675 -2.98 11.1475 -4 13.1875 C-4.66 13.1875 -5.32 13.1875 -6 13.1875 C-6.33 10.2175 -6.66 7.2475 -7 4.1875 C-7.99 4.1875 -8.98 4.1875 -10 4.1875 C-9.67 3.1975 -9.34 2.2075 -9 1.1875 C-5.79226388 0.11825463 -3.37015182 0.02065044 0 0 Z M4 3.1875 C4.66 3.8475 5.32 4.5075 6 5.1875 C6.33 4.5275 6.66 3.8675 7 3.1875 C6.01 3.1875 5.02 3.1875 4 3.1875 Z M7 5.1875 C7 5.8475 7 6.5075 7 7.1875 C5.68 7.1875 4.36 7.1875 3 7.1875 C3.33 8.1775 3.66 9.1675 4 10.1875 C5.65 9.8575 7.3 9.5275 9 9.1875 C8.34 7.8675 7.68 6.5475 7 5.1875 Z M14 4.1875 C13.01 4.5175 12.02 4.8475 11 5.1875 C11 6.1775 11 7.1675 11 8.1875 C12.32 8.5175 13.64 8.8475 15 9.1875 C15.33 7.8675 15.66 6.5475 16 5.1875 C15.34 4.8575 14.68 4.5275 14 4.1875 Z " fill="#2E2E2F" transform="translate(185,105.8125)"/>
<path d="M0 0 C1.72082924 0 3.34228586 -0.5722028 5 -1 C7.64812363 4.7635632 6.8019749 9.90932576 6 16 C3.23723823 15.47731534 0.6739124 14.89130413 -2 14 C-2.33 14.66 -2.66 15.32 -3 16 C-3.99 16 -4.98 16 -6 16 C-7.82338138 12.15687309 -8.18332705 9.46923703 -7.75 5.25 C-7.66234375 4.28578125 -7.5746875 3.3215625 -7.484375 2.328125 C-7.32453125 1.55984375 -7.1646875 0.7915625 -7 0 C-4.3273172 -1.3363414 -2.84840537 -0.65732432 0 0 Z M1 2 C0.67 2.66 0.34 3.32 0 4 C0.66 4.66 1.32 5.32 2 6 C2.33 5.01 2.66 4.02 3 3 C2.34 2.67 1.68 2.34 1 2 Z M-3 6 C-3 7.98 -3 9.96 -3 12 C-2.34 11.67 -1.68 11.34 -1 11 C-1.33 9.35 -1.66 7.7 -2 6 C-2.33 6 -2.66 6 -3 6 Z " fill="#515D65" transform="translate(211,82)"/>
<path d="M0 0 C2.38671875 0.33984375 2.38671875 0.33984375 5 1 C6.8125 3.5625 6.8125 3.5625 8 6 C8.33 4.35 8.66 2.7 9 1 C9.99 0.67 10.98 0.34 12 0 C13.78126089 1.78126089 13.42034316 4.39462565 13.625 6.8125 C13.72039062 7.87082031 13.81578125 8.92914063 13.9140625 10.01953125 C13.98971418 12.64326922 13.80235938 14.52705654 13 17 C11.35 17 9.7 17 8 17 C7.01 15.02 6.02 13.04 5 11 C4.34 12.98 3.68 14.96 3 17 C2.01 17 1.02 17 0 17 C-1.40333568 11.23073111 -0.67296616 5.81856895 0 0 Z " fill="#4C5561" transform="translate(145,81)"/>
<path d="M0 0 C3.12501639 0.37294434 6.06418547 0.84070212 9 2 C10.5625 5.125 10.5625 5.125 11 8 C10.34 8 9.68 8 9 8 C9.37125 8.7425 9.7425 9.485 10.125 10.25 C11 13 11 13 10.125 15.3125 C9.568125 16.1478125 9.568125 16.1478125 9 17 C8.34 17 7.68 17 7 17 C6.67 17.66 6.34 18.32 6 19 C5.401875 18.835 4.80375 18.67 4.1875 18.5 C1.88655664 17.8885876 1.88655664 17.8885876 -1 18 C-2.125 14.25 -2.125 14.25 -1 12 C-1.66 11.67 -2.32 11.34 -3 11 C-2.34 11 -1.68 11 -1 11 C-1.20625 9.741875 -1.4125 8.48375 -1.625 7.1875 C-2.21335669 3.5985242 -2.16617415 3.24926122 0 0 Z M4 5 C4.66 5.66 5.32 6.32 6 7 C6 6.34 6 5.68 6 5 C5.34 5 4.68 5 4 5 Z M4 11 C4 11.66 4 12.32 4 13 C3.01 13.495 3.01 13.495 2 14 C2.99 14.495 2.99 14.495 4 15 C4.66 14.67 5.32 14.34 6 14 C6 13.01 6 12.02 6 11 C5.34 11 4.68 11 4 11 Z " fill="#424D52" transform="translate(131,56)"/>
<path d="M0 0 C0.66 0 1.32 0 2 0 C1.6875 1.9375 1.6875 1.9375 1 4 C0.01 4.33 -0.98 4.66 -2 5 C-1.67 6.98 -1.34 8.96 -1 11 C-1.66 11 -2.32 11 -3 11 C-2.88490339 12.41750563 -2.75746342 13.83401169 -2.625 15.25 C-2.55539063 16.03890625 -2.48578125 16.8278125 -2.4140625 17.640625 C-1.82990584 20.96921578 -0.76344915 23.23655085 1.625 25.625 C2.305625 26.305625 2.305625 26.305625 3 27 C3 27.66 3 28.32 3 29 C8.61 29 14.22 29 20 29 C20 28.34 20 27.68 20 27 C20.99 27.33 21.98 27.66 23 28 C21.71392916 30.57214169 20.62198923 30.90479742 18 32 C12.3106049 33.3040388 7.45974326 33.26630852 2 31 C-2.47184069 27.90411029 -5.24034858 25.18119584 -7 20 C-8.00501915 14.05109879 -7.41766515 10.00250894 -4.0625 4.9375 C-1.52739726 1.52739726 -1.52739726 1.52739726 0 0 Z " fill="#E89540" transform="translate(40,41)"/>
<path d="M0 0 C0.33 1.98 0.66 3.96 1 6 C-0.65 5.67 -2.3 5.34 -4 5 C-4 4.34 -4 3.68 -4 3 C-4.99 3 -5.98 3 -7 3 C-7.93380961 7.53140653 -7.93380961 7.53140653 -7 12 C-6.01 12.33 -5.02 12.66 -4 13 C-4 12.34 -4 11.68 -4 11 C-4.66 11 -5.32 11 -6 11 C-6 9.68 -6 8.36 -6 7 C-3.69 7 -1.38 7 1 7 C1 9.97 1 12.94 1 16 C-5.20081967 17.33743169 -5.20081967 17.33743169 -8.8125 15.8125 C-11.20032753 13.83401433 -12.19282775 12.98653732 -13 10 C-13.14999823 7.15003367 -12.97614298 4.69438297 -12 2 C-7.85196654 -1.18337451 -4.9702507 -1.30173233 0 0 Z " fill="#4A5359" transform="translate(231,82)"/>
<path d="M0 0 C2 2 2 2 2 5 C0.35 4.67 -1.3 4.34 -3 4 C-3 3.34 -3 2.68 -3 2 C-3.99 2.33 -4.98 2.66 -6 3 C-6 5.97 -6 8.94 -6 12 C-5.34 11.67 -4.68 11.34 -4 11 C-4.66 9.68 -5.32 8.36 -6 7 C-5 6 -5 6 -1.4375 5.9375 C-0.303125 5.958125 0.83125 5.97875 2 6 C2 8.97 2 11.94 2 15 C-1.63537366 15.7841002 -4.22623144 16.240728 -7.8125 15.125 C-10.64335471 12.37502685 -11.30917941 10.06517445 -11.984375 6.2265625 C-12 4 -12 4 -10.3125 1 C-6.39602969 -2.38721756 -4.46648237 -2.17597859 0 0 Z " fill="#464E52" transform="translate(135,83)"/>
<path d="M0 0 C0.33 0.66 0.66 1.32 1 2 C1.639375 2.144375 2.27875 2.28875 2.9375 2.4375 C5 3 5 3 7 6 C6.9765625 8.91796875 6.9765625 8.91796875 6.625 12.1875 C6.45871094 13.81751953 6.45871094 13.81751953 6.2890625 15.48046875 C6.14597656 16.72763672 6.14597656 16.72763672 6 18 C4.56344146 18.08131463 3.1255517 18.13933559 1.6875 18.1875 C0.48673828 18.23970703 0.48673828 18.23970703 -0.73828125 18.29296875 C-3 18 -3 18 -4.71875 16.6875 C-6.51144035 14.32639564 -7.1837692 11.8254143 -8 9 C-7.34 9 -6.68 9 -6 9 C-5.7834375 7.576875 -5.7834375 7.576875 -5.5625 6.125 C-5 3 -5 3 -4 1 C-2.68 1.33 -1.36 1.66 0 2 C0 1.34 0 0.68 0 0 Z M-1 5 C-0.67 5.66 -0.34 6.32 0 7 C-0.66 7.66 -1.32 8.32 -2 9 C-2.16687448 11.58354218 -2.16687448 11.58354218 -2 14 C-0.68 14.33 0.64 14.66 2 15 C2 14.01 2 13.02 2 12 C1.34 12 0.68 12 0 12 C0 11.01 0 10.02 0 9 C0.99 9 1.98 9 3 9 C2.67 7.68 2.34 6.36 2 5 C1.01 5 0.02 5 -1 5 Z " fill="#4A5259" transform="translate(310,80)"/>
<path d="M0 0 C1.36125 0.12375 1.36125 0.12375 2.75 0.25 C3.41 1.9 4.07 3.55 4.75 5.25 C3.43 5.58 2.11 5.91 0.75 6.25 C0.75 5.59 0.75 4.93 0.75 4.25 C-0.24 4.25 -1.23 4.25 -2.25 4.25 C-1.34098671 6.57370613 -1.34098671 6.57370613 1.6875 7.6875 C4.75 9.25 4.75 9.25 6.75 12.25 C7.74 12.58 8.73 12.91 9.75 13.25 C9.42 14.9 9.09 16.55 8.75 18.25 C7.43 17.26 6.11 16.27 4.75 15.25 C1.285 16.735 1.285 16.735 -2.25 18.25 C-3.9 16.93 -5.55 15.61 -7.25 14.25 C-6.87875 13.528125 -6.5075 12.80625 -6.125 12.0625 C-5.06025859 8.64011689 -5.64660152 7.36771927 -7.25 4.25 C-4.83923194 1.28290085 -3.90322061 0.30024774 0 0 Z M-4.25 10.25 C-3.59 11.57 -2.93 12.89 -2.25 14.25 C-1.26 13.92 -0.27 13.59 0.75 13.25 C0.42 12.59 0.09 11.93 -0.25 11.25 C-2.27463255 10.59786708 -2.27463255 10.59786708 -4.25 10.25 Z " fill="#434A4F" transform="translate(103.25,56.75)"/>
<path d="M0 0 C0.66 0.66 1.32 1.32 2 2 C2.33 1.67 2.66 1.34 3 1 C9.38873239 0.52676056 9.38873239 0.52676056 11.9375 2.5 C12.288125 2.995 12.63875 3.49 13 4 C13 3.01 13 2.02 13 1 C13.99 1 14.98 1 16 1 C16.25 6.625 16.25 6.625 14 10 C14 10.66 14 11.32 14 12 C12.68 12.33 11.36 12.66 10 13 C9.06576355 9.98968256 8.95550089 9.13349732 10 6 C9.01 6.495 9.01 6.495 8 7 C7.34444881 9.52733235 7.34444881 9.52733235 7 12 C2.98195309 12.84098656 -0.01803543 13.05404945 -4 12 C-3.67 11.34 -3.34 10.68 -3 10 C-2.93049459 8.45976004 -2.91547643 6.91665012 -2.9375 5.375 C-2.94652344 4.55773437 -2.95554688 3.74046875 -2.96484375 2.8984375 C-2.97644531 2.27195312 -2.98804688 1.64546875 -3 1 C-2.01 0.67 -1.02 0.34 0 0 Z M6 2 C6.66 2.66 7.32 3.32 8 4 C8 3.34 8 2.68 8 2 C7.34 2 6.68 2 6 2 Z M3 3 C4 6 4 6 4 6 Z M0 6 C1 8 1 8 1 8 Z M0 9 C0 9.66 0 10.32 0 11 C0.99 10.67 1.98 10.34 3 10 C2.01 9.67 1.02 9.34 0 9 Z " fill="#252525" transform="translate(60,106)"/>
<path d="M0 0 C0.33 0.66 0.66 1.32 1 2 C1.804375 2.144375 2.60875 2.28875 3.4375 2.4375 C6 3 6 3 8 6 C8.33 4.35 8.66 2.7 9 1 C9.99 1.33 10.98 1.66 12 2 C12.33 5.96 12.66 9.92 13 14 C14.98 14 16.96 14 19 14 C19.33 14.99 19.66 15.98 20 17 C19 18 19 18 16.71484375 18.09765625 C15.34005859 18.08025391 15.34005859 18.08025391 13.9375 18.0625 C13.01839844 18.05347656 12.09929687 18.04445313 11.15234375 18.03515625 C10.44207031 18.02355469 9.73179687 18.01195313 9 18 C8.67 16.35 8.34 14.7 8 13 C7.01 13.495 7.01 13.495 6 14 C3 12 3 12 2.3125 8.875 C2.209375 7.92625 2.10625 6.9775 2 6 C0.02 6 -1.96 6 -4 6 C-4.33 6.66 -4.66 7.32 -5 8 C-5.33 7.01 -5.66 6.02 -6 5 C-2.25 1.125 -2.25 1.125 0 0 Z M7 8 C7.66 8.66 8.32 9.32 9 10 C9 9.34 9 8.68 9 8 C8.34 8 7.68 8 7 8 Z " fill="#515D63" transform="translate(259,80)"/>
<path d="M0 0 C6.78384798 -0.64608076 6.78384798 -0.64608076 10 1.0625 C11.52690415 4.02087678 11.18468872 6.73716599 11 10 C10.34 10 9.68 10 9 10 C9.66 12.31 10.32 14.62 11 17 C9.68 17 8.36 17 7 17 C6.01 15.02 5.02 13.04 4 11 C3.855625 11.61875 3.71125 12.2375 3.5625 12.875 C3 15 3 15 2 17 C1.01 17 0.02 17 -1 17 C-1.22185844 14.73044814 -1.42705515 12.45926245 -1.625 10.1875 C-1.74101562 8.92292969 -1.85703125 7.65835938 -1.9765625 6.35546875 C-2 3 -2 3 0 0 Z M3 4 C3 4.99 3 5.98 3 7 C3.99 7 4.98 7 6 7 C6 6.01 6 5.02 6 4 C5.01 4 4.02 4 3 4 Z " fill="#4C575F" transform="translate(186,81)"/>
<path d="M0 0 C1.32 0.33 2.64 0.66 4 1 C4.10655578 7.44070471 3.96205088 13.62641289 3 20 C2.34 20 1.68 20 1 20 C0.67 20.99 0.34 21.98 0 23 C-4.67692308 21.52307692 -4.67692308 21.52307692 -6.3125 18.875 C-6.539375 18.25625 -6.76625 17.6375 -7 17 C-6.34 17 -5.68 17 -5 17 C-5 14.69 -5 12.38 -5 10 C-4.34 9.67 -3.68 9.34 -3 9 C-2.09274566 6.88672575 -2.09274566 6.88672575 -1.375 4.4375 C-0.98441406 3.19806641 -0.98441406 3.19806641 -0.5859375 1.93359375 C-0.39257812 1.29550781 -0.19921875 0.65742188 0 0 Z " fill="#D19B54" transform="translate(56,12)"/>
<path d="M0 0 C1.45823212 -0.0270043 2.91660675 -0.04639787 4.375 -0.0625 C5.18710937 -0.07410156 5.99921875 -0.08570312 6.8359375 -0.09765625 C9 0 9 0 11 1 C10.67 2.32 10.34 3.64 10 5 C8.35 5 6.7 5 5 5 C5 5.66 5 6.32 5 7 C5.99 6.67 6.98 6.34 8 6 C8.66 7.32 9.32 8.64 10 10 C9.360625 10.103125 8.72125 10.20625 8.0625 10.3125 C7.381875 10.539375 6.70125 10.76625 6 11 C5.67 11.99 5.34 12.98 5 14 C6.65 13.67 8.3 13.34 10 13 C10.33 14.32 10.66 15.64 11 17 C7.53278671 18.73360665 3.76147685 17.48361845 0 17 C-0.66 12.71 -1.32 8.42 -2 4 C-1.34 4 -0.68 4 0 4 C0 2.68 0 1.36 0 0 Z " fill="#4F595F" transform="translate(319,81)"/>
<path d="M0 0 C1.19109375 -0.03867188 1.19109375 -0.03867188 2.40625 -0.078125 C3.0971875 0.03015625 3.788125 0.1384375 4.5 0.25 C5.16 1.24 5.82 2.23 6.5 3.25 C5.84 3.25 5.18 3.25 4.5 3.25 C4.17 3.91 3.84 4.57 3.5 5.25 C2.51 5.25 1.52 5.25 0.5 5.25 C0.5 5.91 0.5 6.57 0.5 7.25 C1.82 7.58 3.14 7.91 4.5 8.25 C4.17 8.91 3.84 9.57 3.5 10.25 C1.85 10.25 0.2 10.25 -1.5 10.25 C-1.5 11.24 -1.5 12.23 -1.5 13.25 C0.48 13.25 2.46 13.25 4.5 13.25 C4.83 14.57 5.16 15.89 5.5 17.25 C1.87 17.25 -1.76 17.25 -5.5 17.25 C-6.62862175 11.88904667 -6.59688221 6.69693314 -6.5 1.25 C-4.15897141 0.07948571 -2.60647047 0.0507754 0 0 Z " fill="#4D595F" transform="translate(297.5,80.75)"/>
<path d="M0 0 C3.0625 0.25 3.0625 0.25 6 1 C6.33 1.66 6.66 2.32 7 3 C7.33 2.01 7.66 1.02 8 0 C14.0546875 -0.1953125 14.0546875 -0.1953125 16 0 C16.66 0.66 17.32 1.32 18 2 C16 4 16 4 14 5 C14 5.66 14 6.32 14 7 C13.01 7.495 13.01 7.495 12 8 C10.86649466 10.01669827 10.86649466 10.01669827 10 12 C9.484375 11.835 8.96875 11.67 8.4375 11.5 C5.82286564 10.87859625 5.82286564 10.87859625 2.375 11 C-1 11 -1 11 -3 10 C-2.25 2.25 -2.25 2.25 0 0 Z M13 2 C12.34 2.66 11.68 3.32 11 4 C12.32 3.67 13.64 3.34 15 3 C14.34 2.67 13.68 2.34 13 2 Z M0 4 C0.33 5.32 0.66 6.64 1 8 C1.99 8 2.98 8 4 8 C3.67 6.35 3.34 4.7 3 3 C1.7763932 2.9254644 1.7763932 2.9254644 0 4 Z " fill="#2A2A2A" transform="translate(157,107)"/>
<path d="M0 0 C0.86625 0.495 0.86625 0.495 1.75 1 C4.19883862 2.27075898 4.19883862 2.27075898 8 2 C8.33 3.32 8.66 4.64 9 6 C9.33 4.35 9.66 2.7 10 1 C12.97 1.495 12.97 1.495 16 2 C16 4.97 16 7.94 16 11 C14.02 11.99 14.02 11.99 12 13 C9 12 9 12 7.8125 9.9375 C7.4103125 8.9784375 7.4103125 8.9784375 7 8 C6.67 9.32 6.34 10.64 6 12 C3.50935112 12.68707555 1.62113708 13 -1 13 C-1.22245393 11.39773045 -1.42746669 9.79303233 -1.625 8.1875 C-1.74101562 7.29417969 -1.85703125 6.40085937 -1.9765625 5.48046875 C-2 3 -2 3 0 0 Z M1 2 C0.7497843 4.91634129 0.7497843 4.91634129 1 8 C2.485 8.99 2.485 8.99 4 10 C5.15811388 7.05270463 5.15811388 7.05270463 5 4 C3.68 3.34 2.36 2.68 1 2 Z M11 3 C11 3.66 11 4.32 11 5 C11.99 4.67 12.98 4.34 14 4 C13.01 3.67 12.02 3.34 11 3 Z " fill="#252425" transform="translate(314,106)"/>
<path d="M0 0 C0.99 0.33 1.98 0.66 3 1 C3.3721042 2.32303717 3.70630173 3.65737935 4 5 C4.66 5.33 5.32 5.66 6 6 C6.70603404 9.74198039 7 13.18792739 7 17 C6.401875 16.690625 5.80375 16.38125 5.1875 16.0625 C2.91043228 14.89790296 2.91043228 14.89790296 0 14 C-0.66 15.32 -1.32 16.64 -2 18 C-3.32 17.34 -4.64 16.68 -6 16 C-5.7215625 14.824375 -5.7215625 14.824375 -5.4375 13.625 C-4.74037734 11.02910225 -4.74037734 11.02910225 -6 9 C-5.34 8.34 -4.68 7.68 -4 7 C-3.67 6.175 -3.34 5.35 -3 4.5 C-2 2 -2 2 0 0 Z M0 5 C1 9 1 9 1 9 Z " fill="#3E484D" transform="translate(171,57)"/>
<path d="M0 0 C0.99 0.33 1.98 0.66 3 1 C2.39100697 5.27086021 0.9085751 8.49279695 -1.1875 12.25 C-1.75855469 13.30703125 -2.32960938 14.3640625 -2.91796875 15.453125 C-5 18 -5 18 -8.23828125 18.859375 C-9.14964844 18.90578125 -10.06101563 18.9521875 -11 19 C-11.6875 16.25 -11.6875 16.25 -12 13 C-10.6875 10.8125 -10.6875 10.8125 -9 9 C-8.34 8.01 -7.68 7.02 -7 6 C-5.9790625 5.505 -5.9790625 5.505 -4.9375 5 C-2.64657009 4.10301684 -2.64657009 4.10301684 -2 1 C-1.34 0.67 -0.68 0.34 0 0 Z " fill="#CA966E" transform="translate(72,21)"/>
<path d="M0 0 C3.3 0.66 6.6 1.32 10 2 C10.33 4.64 10.66 7.28 11 10 C8.69 10.66 6.38 11.32 4 12 C3.67 13.65 3.34 15.3 3 17 C1.68 17 0.36 17 -1 17 C-2.0679179 13.63685556 -1.9736012 10.87043364 -1.625 7.375 C-1.53476563 6.41335937 -1.44453125 5.45171875 -1.3515625 4.4609375 C-1 2 -1 2 0 0 Z M3 5 C3 5.99 3 6.98 3 8 C3.99 8 4.98 8 6 8 C5.67 7.01 5.34 6.02 5 5 C4.34 5 3.68 5 3 5 Z " fill="#4B535A" transform="translate(116,56)"/>
<path d="M0 0 C3.67169817 0.06019177 4.14921887 0.40559906 7.1875 2.9375 C7.8475 3.7625 8.5075 4.5875 9.1875 5.4375 C8.5275 5.4375 7.8675 5.4375 7.1875 5.4375 C6.960625 6.22125 6.73375 7.005 6.5 7.8125 C5.1875 10.4375 5.1875 10.4375 2.625 11.6875 C1.820625 11.935 1.01625 12.1825 0.1875 12.4375 C-1.46427773 14.08927773 -1.98502291 16.28605958 -2.8125 18.4375 C-5.64325926 15.60674074 -5.28770297 13.38164554 -5.5625 9.4375 C-5.66046875 8.179375 -5.7584375 6.92125 -5.859375 5.625 C-5.78869608 0.81883334 -4.68500775 0.53762384 0 0 Z M-1.8125 4.4375 C-0.8225 5.9225 -0.8225 5.9225 0.1875 7.4375 C1.1775 7.1075 2.1675 6.7775 3.1875 6.4375 C3.1875 5.7775 3.1875 5.1175 3.1875 4.4375 C1.5375 4.4375 -0.1125 4.4375 -1.8125 4.4375 Z " fill="#444D51" transform="translate(158.8125,56.5625)"/>
<path d="M0 0 C4.04107056 4.42593442 6.77048835 8.83989967 7.125 14.9375 C6.52936384 19.62813478 5.2206967 21.98145494 2.625 25.875 C1.5625 24 1.5625 24 0.625 21.875 C0.955 21.215 1.285 20.555 1.625 19.875 C2.285 19.875 2.945 19.875 3.625 19.875 C3.3519675 13.73176868 2.53485174 9.85117494 -1.375 4.875 C-2.035 3.885 -2.695 2.895 -3.375 1.875 C-6.94269552 1.13893501 -6.94269552 1.13893501 -10.375 0.875 C-10.375 0.215 -10.375 -0.445 -10.375 -1.125 C-13.675 -1.125 -16.975 -1.125 -20.375 -1.125 C-14.88483886 -6.61516114 -5.79044006 -3.64583263 0 0 Z " fill="#DD975A" transform="translate(62.375,42.125)"/>
<path d="M0 0 C0.99 0.66 1.98 1.32 3 2 C5.15274948 1.69159401 5.15274948 1.69159401 7 1 C6.45859375 2.03060547 6.45859375 2.03060547 5.90625 3.08203125 C5.4421875 3.98308594 4.978125 4.88414063 4.5 5.8125 C4.0359375 6.70582031 3.571875 7.59914063 3.09375 8.51953125 C1.79826859 11.00568026 1.79826859 11.00568026 2 14 C1.34 14 0.68 14 0 14 C-0.33 18.95 -0.66 23.9 -1 29 C-1.66 28.67 -2.32 28.34 -3 28 C-3.59355614 25.35139573 -3.74209269 22.70802678 -4 20 C-4.66 20 -5.32 20 -6 20 C-4.9706067 12.75361298 -3.32399717 6.53504298 0 0 Z " fill="#424D55" transform="translate(6,24)"/>
<path d="M0 0 C2.64 0.33 5.28 0.66 8 1 C7.835 1.804375 7.67 2.60875 7.5 3.4375 C6.96808161 5.7284443 6.96808161 5.7284443 7 7 C7.66 7 8.32 7 9 7 C9 5.02 9 3.04 9 1 C9.66 1 10.32 1 11 1 C11.33 3.64 11.66 6.28 12 9 C12.66 9 13.32 9 14 9 C14 6.69 14 4.38 14 2 C14.99 1.67 15.98 1.34 17 1 C18.32554118 4.97662354 17.34765994 7.09887911 16 11 C15.34 11.66 14.68 12.32 14 13 C11.98528502 12.77614278 9.96854744 12.54581684 7.97265625 12.19140625 C5.7887865 11.84464352 5.7887865 11.84464352 3 13 C-1 6.25 -1 6.25 -1 4 C-0.01 3.67 0.98 3.34 2 3 C1.01 3 0.02 3 -1 3 C-0.67 2.01 -0.34 1.02 0 0 Z M7 8 C7 8.66 7 9.32 7 10 C7.66 10 8.32 10 9 10 C9 9.34 9 8.68 9 8 C8.34 8 7.68 8 7 8 Z " fill="#282628" transform="translate(116,106)"/>
<path d="M0 0 C3.3 0 6.6 0 10 0 C10.33 0.99 10.66 1.98 11 3 C10.34 3.66 9.68 4.32 9 5 C5.875 4.625 5.875 4.625 3 4 C3.66 4.66 4.32 5.32 5 6 C5.99 6 6.98 6 8 6 C8.33 7.32 8.66 8.64 9 10 C7.02 10 5.04 10 3 10 C4.2488427 11.5833253 4.2488427 11.5833253 6 13 C7.32 13 8.64 13 10 13 C9.67 14.32 9.34 15.64 9 17 C6.03 17 3.06 17 0 17 C-1.33257403 5.47835991 -1.33257403 5.47835991 0 0 Z " fill="#4E5E67" transform="translate(192,57)"/>
<path d="M0 0 C2.125 0.9375 2.125 0.9375 4 2 C3.67 3.98 3.34 5.96 3 8 C1.35 8.33 -0.3 8.66 -2 9 C-2 8.34 -2 7.68 -2 7 C-2.60328125 7.09539063 -3.2065625 7.19078125 -3.828125 7.2890625 C-5.02695312 7.45535156 -5.02695312 7.45535156 -6.25 7.625 C-7.03890625 7.74101563 -7.8278125 7.85703125 -8.640625 7.9765625 C-11.35397779 8.00351634 -12.69206005 7.37095578 -15 6 C-15.66 5.67 -16.32 5.34 -17 5 C-16.67 4.01 -16.34 3.02 -16 2 C-15.01257813 1.93941406 -14.02515625 1.87882812 -13.0078125 1.81640625 C-11.72648438 1.73261719 -10.44515625 1.64882813 -9.125 1.5625 C-7.84882813 1.48128906 -6.57265625 1.40007813 -5.2578125 1.31640625 C-2.11699848 1.20793973 -2.11699848 1.20793973 0 0 Z " fill="#C38C5E" transform="translate(26,51)"/>
<path d="M0 0 C-1.90985885 4.29718241 -4.6891507 7.6891507 -8 11 C-8.804375 11.86625 -9.60875 12.7325 -10.4375 13.625 C-13 16 -13 16 -16 16 C-16.33 16.66 -16.66 17.32 -17 18 C-17.66 16.68 -18.32 15.36 -19 14 C-17.60919892 12.41224451 -16.21211596 10.82999061 -14.8125 9.25 C-13.64654297 7.92742188 -13.64654297 7.92742188 -12.45703125 6.578125 C-5.58010618 -0.63772642 -5.58010618 -0.63772642 0 0 Z " fill="#4F5E68" transform="translate(26,9)"/>
<path d="M0 0 C4.17805999 0.5470455 7.87539841 0.30064363 12.02734375 -0.34375 C13.875 -0.5 13.875 -0.5 15.875 0.5 C15.545 2.15 15.215 3.8 14.875 5.5 C14.545 4.84 14.215 4.18 13.875 3.5 C9.39616304 3.94703986 9.39616304 3.94703986 5.875 6.5 C5.545 5.51 5.215 4.52 4.875 3.5 C3.7303125 3.7784375 3.7303125 3.7784375 2.5625 4.0625 C-0.125 4.5 -0.125 4.5 -3.125 3.5 C-3.125 4.49 -3.125 5.48 -3.125 6.5 C-1.475 6.5 0.175 6.5 1.875 6.5 C1.875 7.49 1.875 8.48 1.875 9.5 C1.276875 9.314375 0.67875 9.12875 0.0625 8.9375 C-2.28908762 8.27906313 -2.28908762 8.27906313 -5.125 9.5 C-6.98276765 6.36501708 -7.32640476 4.12528568 -7.125 0.5 C-4.08147495 -0.51450835 -3.04578673 -0.48033913 0 0 Z " fill="#4F5B65" transform="translate(167.125,81.5)"/>
<path d="M0 0 C0.33 1.98 0.66 3.96 1 6 C-2.79692186 8.82561627 -5.18569279 10.56638908 -10 10 C-10.33 10.66 -10.66 11.32 -11 12 C-12.32 11.67 -13.64 11.34 -15 11 C-14.67 9.35 -14.34 7.7 -14 6 C-12.02 5.34 -10.04 4.68 -8 4 C-8 3.34 -8 2.68 -8 2 C-5.09399739 0.74335022 -3.20395416 0 0 0 Z " fill="#B48560" transform="translate(31,61)"/>
<path d="M0 0 C3.96 0 7.92 0 12 0 C12 1.32 12 2.64 12 4 C10.68 4 9.36 4 8 4 C8 7.96 8 11.92 8 16 C6.68 16 5.36 16 4 16 C3.97421875 15.22914062 3.9484375 14.45828125 3.921875 13.6640625 C3.86515625 12.66117188 3.8084375 11.65828125 3.75 10.625 C3.70359375 9.62726563 3.6571875 8.62953125 3.609375 7.6015625 C3.27839115 4.8473523 3.27839115 4.8473523 0.953125 3.6484375 C0.30859375 3.43445312 -0.3359375 3.22046875 -1 3 C-0.67 2.01 -0.34 1.02 0 0 Z " fill="#49535A" transform="translate(178,57)"/>
<path d="M0 0 C0.33 0.66 0.66 1.32 1 2 C1.99 2 2.98 2 4 2 C4.33 2.66 4.66 3.32 5 4 C7.02463255 4.65213292 7.02463255 4.65213292 9 5 C8.1875 6.9375 8.1875 6.9375 7 9 C1.75881575 10.74706142 -3.68833136 10.32791716 -9 9 C-8.67 8.01 -8.34 7.02 -8 6 C-6.5459375 5.5359375 -6.5459375 5.5359375 -5.0625 5.0625 C-1.89495953 4.31531979 -1.89495953 4.31531979 -0.625 1.875 C-0.41875 1.25625 -0.2125 0.6375 0 0 Z " fill="#475763" transform="translate(60,81)"/>
<path d="M0 0 C1.48828125 1.14453125 1.48828125 1.14453125 3 3 C3.29296875 5.69921875 3.29296875 5.69921875 3.1875 8.6875 C3.16042969 9.68136719 3.13335937 10.67523438 3.10546875 11.69921875 C3.07066406 12.45847656 3.03585937 13.21773437 3 14 C4.98 14 6.96 14 9 14 C9 15.32 9 16.64 9 18 C6.03 18.33 3.06 18.66 0 19 C-2.77808718 13.11699185 -1.96297926 7.25450164 -1 1 C-0.67 0.67 -0.34 0.34 0 0 Z " fill="#4C555C" transform="translate(281,80)"/>
<path d="M0 0 C0.66 0.33 1.32 0.66 2 1 C2.44921875 3.58203125 2.44921875 3.58203125 2.6875 6.8125 C2.77386719 7.87082031 2.86023438 8.92914063 2.94921875 10.01953125 C2.993624 12.62577795 2.79191642 14.54089113 2 17 C0.35 17 -1.3 17 -3 17 C-5.09230769 12.56923077 -5.09230769 12.56923077 -4.625 9.6875 C-4.41875 9.130625 -4.2125 8.57375 -4 8 C-3.01 8 -2.02 8 -1 8 C-1.33 7.67 -1.66 7.34 -2 7 C-2.04080783 5.00041636 -2.04254356 2.99954746 -2 1 C-1.34 0.67 -0.68 0.34 0 0 Z " fill="#4F5760" transform="translate(156,81)"/>
<path d="M0 0 C1.134375 0.020625 2.26875 0.04125 3.4375 0.0625 C3.4375 3.0325 3.4375 6.0025 3.4375 9.0625 C-3.1875 10.1875 -3.1875 10.1875 -6.5625 9.0625 C-7.1875 6.1875 -7.1875 6.1875 -7.5625 3.0625 C-6.9025 2.4025 -6.2425 1.7425 -5.5625 1.0625 C-5.2325 2.7125 -4.9025 4.3625 -4.5625 6.0625 C-3.9025 5.7325 -3.2425 5.4025 -2.5625 5.0625 C-3.2225 3.7425 -3.8825 2.4225 -4.5625 1.0625 C-3.5625 0.0625 -3.5625 0.0625 0 0 Z " fill="#49555D" transform="translate(133.5625,88.9375)"/>
<path d="M0 0 C1.32 0.33 2.64 0.66 4 1 C4.91397824 6.68697571 4.91397824 11.31302429 4 17 C-0.75 16.25 -0.75 16.25 -3 14 C-3 13.01 -3 12.02 -3 11 C-2.01 10.34 -1.02 9.68 0 9 C0.25030977 6.58380177 0.25030977 6.58380177 0 4 C0 2.68 0 1.36 0 0 Z " fill="#434D53" transform="translate(213,81)"/>
<path d="M0 0 C0.66 0 1.32 0 2 0 C2.66 1.98 3.32 3.96 4 6 C4.94875 5.835 5.8975 5.67 6.875 5.5 C10 5 10 5 12 5 C13 8 13 8 12.0625 10.1875 C11.711875 10.785625 11.36125 11.38375 11 12 C10.34 12 9.68 12 9 12 C8.67 12.66 8.34 13.32 8 14 C7.401875 13.835 6.80375 13.67 6.1875 13.5 C3.88655664 12.8885876 3.88655664 12.8885876 1 13 C-0.125 9.25 -0.125 9.25 1 7 C0.34 6.67 -0.32 6.34 -1 6 C-0.34 6 0.32 6 1 6 C0.67 4.02 0.34 2.04 0 0 Z M6 6 C6 6.66 6 7.32 6 8 C5.01 8.495 5.01 8.495 4 9 C4.99 9.495 4.99 9.495 6 10 C6.66 9.67 7.32 9.34 8 9 C8 8.01 8 7.02 8 6 C7.34 6 6.68 6 6 6 Z " fill="#3E464B" transform="translate(129,61)"/>
<path d="M0 0 C1.32 0.33 2.64 0.66 4 1 C4 4.96 4 8.92 4 13 C5.98 13 7.96 13 10 13 C9.67 14.32 9.34 15.64 9 17 C2.84765625 17.09765625 2.84765625 17.09765625 1 17 C0 16 0 16 -0.09765625 12.40234375 C-0.0909822 10.91403133 -0.07902183 9.42573568 -0.0625 7.9375 C-0.05798828 7.17888672 -0.05347656 6.42027344 -0.04882812 5.63867188 C-0.0370068 3.75908129 -0.01907078 1.87953101 0 0 Z " fill="#3F474B" transform="translate(204,57)"/>
<path d="M0 0 C1.95447451 3.12715922 1.76287978 5.40984155 1.25 9 C-1 11 -1 11 -3.75 12 C-5.921875 11.5625 -5.921875 11.5625 -7.75 11 C-7.80399736 9.54207116 -7.84279177 8.08357288 -7.875 6.625 C-7.90980469 5.40683594 -7.90980469 5.40683594 -7.9453125 4.1640625 C-7.75 2 -7.75 2 -5.75 0 C-3.29927523 -1.02772329 -2.3456322 -1.34036126 0 0 Z M-3.75 2 C-4.75217064 5.58327753 -4.75217064 5.58327753 -3.75 9 C-3.09 8.67 -2.43 8.34 -1.75 8 C-1.09786708 5.97536745 -1.09786708 5.97536745 -0.75 4 C-1.74 3.34 -2.73 2.68 -3.75 2 Z " fill="#252628" transform="translate(230.75,107)"/>
<path d="M0 0 C2.97 0.495 2.97 0.495 6 1 C6 1.66 6 2.32 6 3 C11.61 3 17.22 3 23 3 C23 2.34 23 1.68 23 1 C23.99 1.33 24.98 1.66 26 2 C24.71392916 4.57214169 23.62198923 4.90479742 21 6 C15.32911995 7.29979506 10.43236596 7.29830868 5 5 C2.0625 2.375 2.0625 2.375 0 0 Z " fill="#CD925B" transform="translate(37,67)"/>
<path d="M0 0 C0 0.99 0 1.98 0 3 C0.67546875 2.76023437 1.3509375 2.52046875 2.046875 2.2734375 C2.93890625 1.97695312 3.8309375 1.68046875 4.75 1.375 C5.63171875 1.07335937 6.5134375 0.77171875 7.421875 0.4609375 C10.41017471 -0.07333427 11.49923002 0.37566809 14 2 C10.22106594 3.1021891 6.46348586 4.12698697 2.625 5 C1.42875 5.33 0.2325 5.66 -1 6 C-1.33 6.66 -1.66 7.32 -2 8 C-3.64363134 8.72159424 -5.31050386 9.39351421 -7 10 C-6 8 -5 6 -4 4 C-4.99 4.33 -5.98 4.66 -7 5 C-6 2 -6 2 -4.0625 0.8125 C-2 0 -2 0 0 0 Z " fill="#414D53" transform="translate(30,5)"/>
<path d="M0 0 C0.99 0.33 1.98 0.66 3 1 C3.22197585 3.10277123 3.42713637 5.20732302 3.625 7.3125 C3.74101562 8.48425781 3.85703125 9.65601562 3.9765625 10.86328125 C4 14 4 14 2 17 C1.01 17 0.02 17 -1 17 C-2.45780584 10.98655091 -2.74225803 5.65590719 0 0 Z " fill="#4B535C" transform="translate(140,81)"/>
<path d="M0 0 C0.66 0.33 1.32 0.66 2 1 C2 1.66 2 2.32 2 3 C1.34 3 0.68 3 0 3 C-0.309375 3.86625 -0.309375 3.86625 -0.625 4.75 C-2.64511628 8.05564482 -4.53050023 9.23481591 -8 11 C-11.66163312 11.60943275 -15.29264925 11.86806581 -19 12 C-19 11.01 -19 10.02 -19 9 C-16.46815512 6.64276511 -15.52809907 6 -12 6 C-12 6.66 -12 7.32 -12 8 C-8.20696275 6.99806563 -5.28463659 6.18975773 -2 4 C-0.80767387 1.94996045 -0.80767387 1.94996045 0 0 Z " fill="#444B53" transform="translate(78,65)"/>
<path d="M0 0 C-0.66 0.66 -1.32 1.32 -2 2 C-2.99 2 -3.98 2 -5 2 C-4.34 2.33 -3.68 2.66 -3 3 C-3 3.66 -3 4.32 -3 5 C-3.99 5 -4.98 5 -6 5 C-4.0745356 7.2236068 -4.0745356 7.2236068 -1 8 C-1 8.66 -1 9.32 -1 10 C-3.64 10 -6.28 10 -9 10 C-10.05404945 6.01803543 -9.84098656 3.01804691 -9 -1 C-5.22102349 -2.0497157 -3.35080929 -2.10976881 0 0 Z " fill="#2F2E2F" transform="translate(152,108)"/>
<path d="M0 0 C0.66 0.33 1.32 0.66 2 1 C3.10746804 4.7335599 2.97916216 7.96994898 2.5625 11.8125 C2.46066406 12.78832031 2.35882813 13.76414062 2.25390625 14.76953125 C2.12822266 15.87361328 2.12822266 15.87361328 2 17 C0.68 16.67 -0.64 16.34 -2 16 C-2.9104464 11.04312518 -3.06617088 6.94315591 -2 2 C-1.34 1.34 -0.68 0.68 0 0 Z " fill="#535C69" transform="translate(200,81)"/>
<path d="M0 0 C0.99 0.33 1.98 0.66 3 1 C3 1.66 3 2.32 3 3 C4.32 3.33 5.64 3.66 7 4 C6.01 4.495 6.01 4.495 5 5 C5.3403125 6.1446875 5.3403125 6.1446875 5.6875 7.3125 C6 10 6 10 4.9375 11.875 C2.09278149 13.52677204 0.09807413 12.75730701 -3 12 C-3 11.34 -3 10.68 -3 10 C-1.68 9.34 -0.36 8.68 1 8 C0.01 7.67 -0.98 7.34 -2 7 C-2.875 5.125 -2.875 5.125 -3 3 C-1.5625 1.25 -1.5625 1.25 0 0 Z M1 3 C0.67 3.66 0.34 4.32 0 5 C0.66 5 1.32 5 2 5 C1.67 4.34 1.34 3.68 1 3 Z " fill="#2E2E2F" transform="translate(97,106)"/>
<path d="M0 0 C4.85419266 0.59197472 8.64240676 1.86392488 13 4 C13.33 4.66 13.66 5.32 14 6 C12.35 5.67 10.7 5.34 9 5 C9.66 6.98 10.32 8.96 11 11 C10.01 10.67 9.02 10.34 8 10 C8 9.01 8 8.02 8 7 C7.01 7.33 6.02 7.66 5 8 C4.67 7.01 4.34 6.02 4 5 C1.98491642 4.26676204 1.98491642 4.26676204 0 4 C0 2.68 0 1.36 0 0 Z " fill="#C89561" transform="translate(11,36)"/>
<path d="M0 0 C1.32 0 2.64 0 4 0 C4 2.31 4 4.62 4 7 C5.65 7.33 7.3 7.66 9 8 C9.33 7.34 9.66 6.68 10 6 C10.99 6.66 11.98 7.32 13 8 C13 8.66 13 9.32 13 10 C9.3558226 12.4294516 7.28758728 12.16179575 3 12 C1.38050989 9.42786866 0.95591249 8.32330841 1.375 5.25 C1.58125 4.5075 1.7875 3.765 2 3 C1.34 3 0.68 3 0 3 C-0.33 3.66 -0.66 4.32 -1 5 C-1.33 4.34 -1.66 3.68 -2 3 C-1.34 2.01 -0.68 1.02 0 0 Z " fill="#3E474E" transform="translate(253,86)"/>
<path d="M0 0 C1.01866229 1.65532623 2.01810813 3.32260138 3 5 C3.99 5.33 4.98 5.66 6 6 C5.67 6.66 5.34 7.32 5 8 C2.9375 8.625 2.9375 8.625 1 9 C1.66 10.32 2.32 11.64 3 13 C2.01 13 1.02 13 0 13 C-1.38938077 11.03852126 -2.7260411 9.03833424 -4 7 C-4.33 7 -4.66 7 -5 7 C-5 5.02 -5 3.04 -5 1 C-3 0 -3 0 0 0 Z " fill="#C49467" transform="translate(26,21)"/>
<path d="M0 0 C1.485 0.99 1.485 0.99 3 2 C2.67 2.33 2.34 2.66 2 3 C2.33 4.010625 2.66 5.02125 3 6.0625 C4.07001321 9.75479911 4.15704155 13.15248207 4 17 C2.35 16.67 0.7 16.34 -1 16 C-1.02685095 13.52076199 -1.04676547 11.0418116 -1.0625 8.5625 C-1.07506836 7.50192383 -1.07506836 7.50192383 -1.08789062 6.41992188 C-1.09653588 4.61306441 -1.05220011 2.80612397 -1 1 C-0.67 0.67 -0.34 0.34 0 0 Z " fill="#51626B" transform="translate(1,43)"/>
<path d="M0 0 C3 0 3 0 5 1 C5 1.33 5 1.66 5 2 C6.65 2.33 8.3 2.66 10 3 C10 3.66 10 4.32 10 5 C10.66 5.33 11.32 5.66 12 6 C9.69 6.33 7.38 6.66 5 7 C4.67 8.32 4.34 9.64 4 11 C3.34 11 2.68 11 2 11 C2 9.68 2 8.36 2 7 C1.34 7 0.68 7 0 7 C-1.04449911 3.86650268 -0.93423645 3.01031744 0 0 Z " fill="#48545C" transform="translate(172,85)"/>
<path d="M0 0 C1.88671875 0.2265625 1.88671875 0.2265625 4 1 C5.08203125 2.9609375 5.08203125 2.9609375 5.8125 5.375 C6.06644531 6.16648437 6.32039063 6.95796875 6.58203125 7.7734375 C7 10 7 10 6 13 C4.68 12.34 3.36 11.68 2 11 C2 10.34 2 9.68 2 9 C2.66 9 3.32 9 4 9 C3.01 8.01 2.02 7.02 1 6 C1 8.97 1 11.94 1 15 C0.34 14.67 -0.32 14.34 -1 14 C-2.09889421 8.59710348 -2.20409437 5.18610439 0 0 Z " fill="#C99569" transform="translate(38,12)"/>
<path d="M0 0 C3 1 3 1 4 3 C5.32 2.01 6.64 1.02 8 0 C8 3.78706732 7.5745952 7.26513121 7 11 C5.125 11.625 5.125 11.625 3 12 C2.34 11.34 1.68 10.68 1 10 C1.66 8.68 2.32 7.36 3 6 C2.01 5.67 1.02 5.34 0 5 C0 3.35 0 1.7 0 0 Z " fill="#28272A" transform="translate(260,106)"/>
<path d="M0 0 C0.33 0 0.66 0 1 0 C1 1.65 1 3.3 1 5 C2.65 5 4.3 5 6 5 C5.67 6.32 5.34 7.64 5 9 C4.01 9 3.02 9 2 9 C2 10.32 2 11.64 2 13 C1.401875 12.814375 0.80375 12.62875 0.1875 12.4375 C-2.16408762 11.77906313 -2.16408762 11.77906313 -5 13 C-5 12.01 -5 11.02 -5 10 C-5.66 9.67 -6.32 9.34 -7 9 C-5.0625 8.4375 -5.0625 8.4375 -3 8 C-2.67 8.33 -2.34 8.66 -2 9 C-1.855625 7.700625 -1.71125 6.40125 -1.5625 5.0625 C-1.125 1.125 -1.125 1.125 0 0 Z " fill="#2A292A" transform="translate(24,106)"/>
<path d="M0 0 C0.33 1.98 0.66 3.96 1 6 C-5.28571429 8.42857143 -5.28571429 8.42857143 -9 7 C-8.8125 4.625 -8.8125 4.625 -8 2 C-5.11090151 0.40339294 -3.30941204 0 0 0 Z " fill="#CD8E58" transform="translate(31,61)"/>
<path d="M0 0 C0.99 0.66 1.98 1.32 3 2 C2.67 6.29 2.34 10.58 2 15 C0.68 14.67 -0.64 14.34 -2 14 C-2 12.35 -2 10.7 -2 9 C-1.67 9.66 -1.34 10.32 -1 11 C-0.34 11 0.32 11 1 11 C1 10.01 1 9.02 1 8 C-0.32 7.67 -1.64 7.34 -3 7 C-2.25 2.25 -2.25 2.25 0 0 Z " fill="#58666B" transform="translate(120,81)"/>
<path d="M0 0 C0.99 0.33 1.98 0.66 3 1 C3 1.66 3 2.32 3 3 C3.99 3.33 4.98 3.66 6 4 C5.01 5.485 5.01 5.485 4 7 C3.34 7 2.68 7 2 7 C2 8.98 2 10.96 2 13 C1.01 12.67 0.02 12.34 -1 12 C-2.1875 8.9375 -2.1875 8.9375 -3 6 C-2.34 6 -1.68 6 -1 6 C-0.67 4.02 -0.34 2.04 0 0 Z " fill="#50585F" transform="translate(305,83)"/>
<path d="M0 0 C2 2 2 2 2 5 C3.32 5 4.64 5 6 5 C6 5.99 6 6.98 6 8 C5.34 8 4.68 8 4 8 C4 8.99 4 9.98 4 11 C4.99 11.33 5.98 11.66 7 12 C7 12.66 7 13.32 7 14 C6.01 14.33 5.02 14.66 4 15 C1.875 13.875 1.875 13.875 0 12 C-0.6875 9.5625 -0.6875 9.5625 -1 7 C-1.32483418 5.66457061 -1.6550855 4.33038449 -2 3 C-1.34 3 -0.68 3 0 3 C0 2.01 0 1.02 0 0 Z " fill="#444C53" transform="translate(115,84)"/>
<path d="M0 0 C2.97 0 5.94 0 9 0 C9.33 1.98 9.66 3.96 10 6 C3.6 6.36923077 3.6 6.36923077 0.5625 4.5 C0.046875 4.005 -0.46875 3.51 -1 3 C-0.67 2.01 -0.34 1.02 0 0 Z " fill="#BB976C" transform="translate(10,53)"/>
<path d="M0 0 C0.99 0.66 1.98 1.32 3 2 C2.34 2 1.68 2 1 2 C0.67 6.95 0.34 11.9 0 17 C-0.66 16.67 -1.32 16.34 -2 16 C-2.59355614 13.35139573 -2.74209269 10.70802678 -3 8 C-3.66 8 -4.32 8 -5 8 C-4.67 6.35 -4.34 4.7 -4 3 C-2.68 2.67 -1.36 2.34 0 2 C0 1.34 0 0.68 0 0 Z " fill="#3E4C53" transform="translate(5,36)"/>
<path d="M0 0 C2.64 0 5.28 0 8 0 C8 0.66 8 1.32 8 2 C7.01 2.495 7.01 2.495 6 3 C5.34227572 6.02934491 5.34227572 6.02934491 5 9 C5.66 9 6.32 9 7 9 C6 11 6 11 4 12 C1.8614515 9.8614515 1.57344937 8.86724686 1 6 C1.66 6 2.32 6 3 6 C2.67 5.01 2.34 4.02 2 3 C1.34 2.67 0.68 2.34 0 2 C0 1.34 0 0.68 0 0 Z " fill="#2B2B2C" transform="translate(134,107)"/>
<path d="M0 0 C0.33 0.66 0.66 1.32 1 2 C3.02463255 2.65213292 3.02463255 2.65213292 5 3 C4.67 5.31 4.34 7.62 4 10 C3.34 8.68 2.68 7.36 2 6 C0.02 6 -1.96 6 -4 6 C-4.33 6.66 -4.66 7.32 -5 8 C-5.33 7.01 -5.66 6.02 -6 5 C-2.25 1.125 -2.25 1.125 0 0 Z " fill="#485258" transform="translate(259,80)"/>
<path d="M0 0 C2.9391881 4.40878215 3.73021811 7.71777288 3 13 C1.89230862 15.57816377 0.56739499 17.64890752 -1 20 C-2.0625 18.125 -2.0625 18.125 -3 16 C-2.67 15.34 -2.34 14.68 -2 14 C-1.34 14 -0.68 14 0 14 C0 9.38 0 4.76 0 0 Z " fill="#C28460" transform="translate(66,48)"/>
<path d="M0 0 C0.66 0 1.32 0 2 0 C2 1.32 2 2.64 2 4 C3.36125 3.4740625 3.36125 3.4740625 4.75 2.9375 C7.87758436 2.03531221 9.05208081 1.86618493 12 3 C11.67 3.99 11.34 4.98 11 6 C6.66726186 6.92844389 3.33273814 6.92844389 -1 6 C-0.67 4.02 -0.34 2.04 0 0 Z " fill="#3D474B" transform="translate(172,92)"/>
<path d="M0 0 C2.625 0.375 2.625 0.375 5 1 C4.67 2.65 4.34 4.3 4 6 C3.34 6 2.68 6 2 6 C1.34 7.98 0.68 9.96 0 12 C-2 10 -2 10 -2.265625 8.125 C-2.26046875 7.42375 -2.2553125 6.7225 -2.25 6 C-2.25515625 5.29875 -2.2603125 4.5975 -2.265625 3.875 C-2 2 -2 2 0 0 Z " fill="#4A555A" transform="translate(156,63)"/>
<path d="M0 0 C1.9375 0.6875 1.9375 0.6875 4 2 C4.75 4.625 4.75 4.625 5 7 C4.34 7 3.68 7 3 7 C2.67 7.99 2.34 8.98 2 10 C0.68 9.67 -0.64 9.34 -2 9 C-1.835 8.236875 -1.67 7.47375 -1.5 6.6875 C-0.90854604 3.96403764 -0.90854604 3.96403764 -1 1 C-0.67 0.67 -0.34 0.34 0 0 Z " fill="#515A62" transform="translate(137,57)"/>
<path d="M0 0 C0.94875 0.165 1.8975 0.33 2.875 0.5 C6.64539803 1.10326369 9.28433805 0.78224462 13 0 C12.67 0.99 12.34 1.98 12 3 C11.01 2.67 10.02 2.34 9 2 C9 2.66 9 3.32 9 4 C5.18243176 5.37432457 1.92744671 4.67975039 -2 4 C-1.34 2.68 -0.68 1.36 0 0 Z " fill="#EA8C3F" transform="translate(51,66)"/>
<path d="M0 0 C3.3 0 6.6 0 10 0 C10 0.66 10 1.32 10 2 C10.66 2.33 11.32 2.66 12 3 C10.68 3 9.36 3 8 3 C8 2.34 8 1.68 8 1 C6.68 1.33 5.36 1.66 4 2 C4 3.65 4 5.3 4 7 C2.02 6.34 0.04 5.68 -2 5 C-1.34 3.35 -0.68 1.7 0 0 Z " fill="#EC9040" transform="translate(42,41)"/>
<path d="M0 0 C0.79148437 -0.02578125 1.58296875 -0.0515625 2.3984375 -0.078125 C5.09524878 0.31929982 5.93229015 1.17506535 7.625 3.25 C5.96157163 4.91342837 3.8424291 4.61048097 1.5625 4.8125 C0.64339844 4.89628906 -0.27570313 4.98007813 -1.22265625 5.06640625 C-1.93292969 5.12699219 -2.64320312 5.18757813 -3.375 5.25 C-4.035 3.93 -4.695 2.61 -5.375 1.25 C-3.79577594 -0.32922406 -2.18056126 0.042341 0 0 Z " fill="#424D53" transform="translate(101.375,93.75)"/>
<path d="M0 0 C1.670625 0.061875 1.670625 0.061875 3.375 0.125 C2.375 3.125 2.375 3.125 0.375 4.125 C0.375 5.115 0.375 6.105 0.375 7.125 C-1.605 7.455 -3.585 7.785 -5.625 8.125 C-5.75 5.25 -5.75 5.25 -5.625 2.125 C-3.625 0.125 -3.625 0.125 0 0 Z " fill="#383C40" transform="translate(158.625,56.875)"/>
<path d="M0 0 C0.66 0.33 1.32 0.66 2 1 C2 1.66 2 2.32 2 3 C1.34 3 0.68 3 0 3 C-0.33 3.66 -0.66 4.32 -1 5 C-2.64142963 6.0409066 -4.30712215 7.04504326 -6 8 C-6.45375 7.525625 -6.9075 7.05125 -7.375 6.5625 C-8.93258204 4.90972192 -8.93258204 4.90972192 -11 4 C-8.2134483 1.2134483 -5.84575573 1.34337105 -2 1 C-1.34 1.33 -0.68 1.66 0 2 C0 1.34 0 0.68 0 0 Z " fill="#40555B" transform="translate(92,32)"/>
<path d="M0 0 C0 0.99 0 1.98 0 3 C-0.73605469 2.90460937 -1.47210938 2.80921875 -2.23046875 2.7109375 C-3.69419922 2.54464844 -3.69419922 2.54464844 -5.1875 2.375 C-6.63189453 2.20097656 -6.63189453 2.20097656 -8.10546875 2.0234375 C-11.26557037 1.99784963 -13.13803402 2.73977296 -16 4 C-16.99 4 -17.98 4 -19 4 C-18.67 3.01 -18.34 2.02 -18 1 C-15.93939936 0.63494484 -13.87640368 0.28339285 -11.8125 -0.0625 C-10.66394531 -0.25972656 -9.51539063 -0.45695313 -8.33203125 -0.66015625 C-5.21351634 -0.97822284 -3.00194217 -0.80843264 0 0 Z " fill="#526571" transform="translate(49,4)"/>
<path d="M0 0 C-0.33 1.65 -0.66 3.3 -1 5 C-1.33 4.34 -1.66 3.68 -2 3 C-6.47883696 3.44703986 -6.47883696 3.44703986 -10 6 C-10.33 4.02 -10.66 2.04 -11 0 C-3.375 -1.125 -3.375 -1.125 0 0 Z " fill="#57616A" transform="translate(183,82)"/>
<path d="M0 0 C1.19109375 -0.03867188 1.19109375 -0.03867188 2.40625 -0.078125 C3.0971875 0.03015625 3.788125 0.1384375 4.5 0.25 C5.16 1.24 5.82 2.23 6.5 3.25 C5.84 3.25 5.18 3.25 4.5 3.25 C4.17 3.91 3.84 4.57 3.5 5.25 C-0.44727588 5.42942163 -3.0980513 5.34350689 -6.5 3.25 C-6.5 2.59 -6.5 1.93 -6.5 1.25 C-4.15897141 0.07948571 -2.60647047 0.0507754 0 0 Z " fill="#575D62" transform="translate(297.5,80.75)"/>
<path d="M0 0 C0.33 0.66 0.66 1.32 1 2 C-0.07229283 5.13439441 -1.47657021 8.06195683 -3 11 C-4.32 11 -5.64 11 -7 11 C-6.58485103 6.1565954 -4.53791301 4.18412171 -1 1 C-0.67 0.67 -0.34 0.34 0 0 Z " fill="#D88E55" transform="translate(69,27)"/>
<path d="M0 0 C0.66 0 1.32 0 2 0 C2 0.99 2 1.98 2 3 C1.34 3 0.68 3 0 3 C0.33 4.32 0.66 5.64 1 7 C2.32 7 3.64 7 5 7 C4.34 4.69 3.68 2.38 3 0 C4.32 0.33 5.64 0.66 7 1 C7 2.98 7 4.96 7 7 C4.69 7.66 2.38 8.32 0 9 C-0.66 6.69 -1.32 4.38 -2 2 C-1.34 1.34 -0.68 0.68 0 0 Z " fill="#CC9361" transform="translate(40,27)"/>
<path d="M0 0 C0.66 0.99 1.32 1.98 2 3 C5.08365871 3.2502157 5.08365871 3.2502157 8 3 C8.33 3.99 8.66 4.98 9 6 C8 7 8 7 5.71484375 7.09765625 C4.34005859 7.08025391 4.34005859 7.08025391 2.9375 7.0625 C2.01839844 7.05347656 1.09929687 7.04445313 0.15234375 7.03515625 C-0.55792969 7.02355469 -1.26820313 7.01195313 -2 7 C-1.42415568 4.61435923 -0.77772405 2.33317216 0 0 Z " fill="#485259" transform="translate(270,91)"/>
<path d="M0 0 C0.66 0 1.32 0 2 0 C2.3125 2.3125 2.3125 2.3125 2 5 C-1.27178817 7.63560713 -2.72068147 8 -7 8 C-6.1875 5.5625 -6.1875 5.5625 -5 3 C-4.01 2.67 -3.02 2.34 -2 2 C-1.67 2.33 -1.34 2.66 -1 3 C-0.67 2.01 -0.34 1.02 0 0 Z " fill="#4F575D" transform="translate(253,89)"/>
<path d="M0 0 C2.5570851 2.22355226 3.24170912 3.75018193 4 7 C4.66 7.33 5.32 7.66 6 8 C5.01 9.485 5.01 9.485 4 11 C3.01 11 2.02 11 1 11 C-1.03684712 6.92630576 -1.0257259 4.41062136 0 0 Z " fill="#292E33" transform="translate(204,87)"/>
<path d="M0 0 C0.99 0.66 1.98 1.32 3 2 C2.67 5.63 2.34 9.26 2 13 C-1.92552386 9.07447614 -1.74212404 7.41539518 -2 2 C-1.34 1.34 -0.68 0.68 0 0 Z " fill="#525B62" transform="translate(125,84)"/>
<path d="M0 0 C0.66 1.65 1.32 3.3 2 5 C0.68 5.33 -0.64 5.66 -2 6 C-2 5.34 -2 4.68 -2 4 C-2.99 4 -3.98 4 -5 4 C-5.33 4.66 -5.66 5.32 -6 6 C-6 5.01 -6 4.02 -6 3 C-6.66 3 -7.32 3 -8 3 C-8 2.34 -8 1.68 -8 1 C-5.29120665 -0.35439668 -2.99066732 -0.06501451 0 0 Z " fill="#323E40" transform="translate(106,57)"/>
<path d="M0 0 C2 1.0625 2 1.0625 4 3 C4.25 6.6875 4.25 6.6875 4 10 C3.01 10.33 2.02 10.66 1 11 C0.26919734 9.02253397 -0.39421747 7.01927511 -1 5 C-0.67 4.34 -0.34 3.68 0 3 C-0.99 2.67 -1.98 2.34 -3 2 C-2.01 2 -1.02 2 0 2 C0 1.34 0 0.68 0 0 Z " fill="#535E66" transform="translate(193,81)"/>
<path d="M0 0 C1.32 0.66 2.64 1.32 4 2 C3.25 4.4375 3.25 4.4375 2 7 C-0.0625 7.625 -0.0625 7.625 -2 8 C-2.33 8.99 -2.66 9.98 -3 11 C-3.99 10.67 -4.98 10.34 -6 10 C-5.34 8.02 -4.68 6.04 -4 4 C-2.35 4 -0.7 4 1 4 C1.33 3.34 1.66 2.68 2 2 C1.34 2 0.68 2 0 2 C0 1.34 0 0.68 0 0 Z " fill="#242224" transform="translate(190,106)"/>
<path d="M0 0 C0.33 0.66 0.66 1.32 1 2 C0.34 2 -0.32 2 -1 2 C-1.59070014 3.94603274 -1.59070014 3.94603274 -2 6 C-1.67 6.33 -1.34 6.66 -1 7 C-0.67 7.99 -0.34 8.98 0 10 C-0.33 10.66 -0.66 11.32 -1 12 C-1.99 12 -2.98 12 -4 12 C-5.28571429 4.57142857 -5.28571429 4.57142857 -4 1 C-2.68 0.67 -1.36 0.34 0 0 Z " fill="#373739" transform="translate(43,106)"/>
<path d="M0 0 C0.66 0.99 1.32 1.98 2 3 C4.58380177 3.25030977 4.58380177 3.25030977 7 3 C6.67 3.99 6.34 4.98 6 6 C4.35 6.33 2.7 6.66 1 7 C1 8.98 1 10.96 1 13 C0.731875 12.360625 0.46375 11.72125 0.1875 11.0625 C-0.88667752 8.66868314 -0.88667752 8.66868314 -4 8 C-4 7.34 -4 6.68 -4 6 C-2.68 6 -1.36 6 0 6 C-0.2784375 4.7934375 -0.2784375 4.7934375 -0.5625 3.5625 C-0.706875 2.716875 -0.85125 1.87125 -1 1 C-0.67 0.67 -0.34 0.34 0 0 Z " fill="#CC8F61" transform="translate(30,35)"/>
<path d="M0 0 C0.66 0 1.32 0 2 0 C3.32554118 3.97662354 2.34765994 6.09887911 1 10 C0.34 10.66 -0.32 11.32 -1 12 C-3.125 11.625 -3.125 11.625 -5 11 C-4.67 10.01 -4.34 9.02 -4 8 C-3.01 8 -2.02 8 -1 8 C-1.020625 6.865625 -1.04125 5.73125 -1.0625 4.5625 C-1 1 -1 1 0 0 Z " fill="#332F2F" transform="translate(131,107)"/>
<path d="M0 0 C1.65 0.99 3.3 1.98 5 3 C3.79180633 6.624581 3.19658087 6.40170957 0 8 C0 7.01 0 6.02 0 5 C-1.65 4.67 -3.3 4.34 -5 4 C-3.35 2.68 -1.7 1.36 0 0 Z " fill="#1E1F1D" transform="translate(277,106)"/>
<path d="M0 0 C6.0546875 -0.1953125 6.0546875 -0.1953125 8 0 C8.66 0.66 9.32 1.32 10 2 C9.34 2.66 8.68 3.32 8 4 C8 4.33 8 4.66 8 5 C5.36 5 2.72 5 0 5 C0 3.35 0 1.7 0 0 Z M5 2 C4.34 2.66 3.68 3.32 3 4 C4.32 3.67 5.64 3.34 7 3 C6.34 2.67 5.68 2.34 5 2 Z " fill="#2B2B2C" transform="translate(165,107)"/>
<path d="M0 0 C2 2 2 2 3 5 C4.49985609 6.66710346 4.49985609 6.66710346 6 8 C5.34 8.66 4.68 9.32 4 10 C0.83282717 8.41641358 -0.73268318 7.54736301 -2.3125 4.3125 C-2.539375 3.549375 -2.76625 2.78625 -3 2 C-2.34 2 -1.68 2 -1 2 C-0.67 1.34 -0.34 0.68 0 0 Z " fill="#444C53" transform="translate(241,89)"/>
<path d="M0 0 C2.375 -0.125 2.375 -0.125 5 0 C5.66 0.66 6.32 1.32 7 2 C6.625 4.125 6.625 4.125 6 6 C4.35 6.33 2.7 6.66 1 7 C0.34 6.01 -0.32 5.02 -1 4 C0.65 4 2.3 4 4 4 C4 3.34 4 2.68 4 2 C2.68 2 1.36 2 0 2 C0 1.34 0 0.68 0 0 Z " fill="#282829" transform="translate(305,107)"/>
<path d="M0 0 C0.99 0.66 1.98 1.32 3 2 C2.67 5.3 2.34 8.6 2 12 C1.01 12 0.02 12 -1 12 C-1.33 8.37 -1.66 4.74 -2 1 C-1.34 0.67 -0.68 0.34 0 0 Z " fill="#302F30" transform="translate(234,106)"/>
<path d="M0 0 C2 3 2 3 2 5 C2.66 4.67 3.32 4.34 4 4 C3.67 3.34 3.34 2.68 3 2 C3.99 2 4.98 2 6 2 C7 5 7 5 6 8 C3 9 3 9 0 8 C-1.125 2.25 -1.125 2.25 0 0 Z " fill="#343D45" transform="translate(127,90)"/>
<path d="M0 0 C0.6875 2.3125 0.6875 2.3125 1 5 C-0.51848087 7.23776128 -1.61242891 7.87819194 -4.1875 8.6875 C-4.785625 8.790625 -5.38375 8.89375 -6 9 C-5.38983051 3.50847458 -5.38983051 3.50847458 -3.5625 1.125 C-2 0 -2 0 0 0 Z " fill="#53626B" transform="translate(7,30)"/>
<path d="M0 0 C2.97 0.495 2.97 0.495 6 1 C6.6875 2.8125 6.6875 2.8125 7 5 C5.5625 6.75 5.5625 6.75 4 8 C2.68 7.34 1.36 6.68 0 6 C0 4 0 2 0 0 Z " fill="#1C1C1C" transform="translate(253,106)"/>
<path d="M0 0 C-0.33 1.32 -0.66 2.64 -1 4 C-1.66 4 -2.32 4 -3 4 C-3.33 4.66 -3.66 5.32 -4 6 C-4 5.34 -4 4.68 -4 4 C-5.32 4.33 -6.64 4.66 -8 5 C-8.33 4.34 -8.66 3.68 -9 3 C-8.34 3 -7.68 3 -7 3 C-7 2.01 -7 1.02 -7 0 C-3.98968256 -0.93423645 -3.13349732 -1.04449911 0 0 Z " fill="#DB8B4E" transform="translate(28,54)"/>
<path d="M0 0 C3 1 3 1 5 4 C5.66 3.67 6.32 3.34 7 3 C7 4.65 7 6.3 7 8 C3.88045262 7.66275164 2.3790035 7.3790035 0.125 5.125 C-0.24625 4.42375 -0.6175 3.7225 -1 3 C-0.67 2.01 -0.34 1.02 0 0 Z " fill="#292828" transform="translate(273,111)"/>
<path d="M0 0 C1.98 0.495 1.98 0.495 4 1 C4 1.66 4 2.32 4 3 C4.66 3.33 5.32 3.66 6 4 C5.67 5.98 5.34 7.96 5 10 C4.01 9.67 3.02 9.34 2 9 C2 7.02 2 5.04 2 3 C1.01 2.67 0.02 2.34 -1 2 C-0.67 1.34 -0.34 0.68 0 0 Z " fill="#535F66" transform="translate(171,59)"/>
<path d="M0 0 C0.99 0.99 1.98 1.98 3 3 C2.34 3 1.68 3 1 3 C0.67 3.99 0.34 4.98 0 6 C-2.02045442 5.39816251 -4.02111039 4.72693904 -6 4 C-6.33 3.34 -6.66 2.68 -7 2 C-3.98968256 1.06576355 -3.13349732 0.95550089 0 2 C0 1.34 0 0.68 0 0 Z " fill="#41484F" transform="translate(227,93)"/>
<path d="M0 0 C1.32 0.33 2.64 0.66 4 1 C4 1.99 4 2.98 4 4 C2 5 2 5 -1 6 C-1.33 7.65 -1.66 9.3 -2 11 C-2.99 10.67 -3.98 10.34 -5 10 C-4.34 9.67 -3.68 9.34 -3 9 C-2.09274566 6.88672575 -2.09274566 6.88672575 -1.375 4.4375 C-1.11460938 3.61121094 -0.85421875 2.78492188 -0.5859375 1.93359375 C-0.39257812 1.29550781 -0.19921875 0.65742188 0 0 Z " fill="#B99670" transform="translate(56,12)"/>
<path d="M0 0 C0.99 0.33 1.98 0.66 3 1 C3 2.65 3 4.3 3 6 C1.35 6.33 -0.3 6.66 -2 7 C-2.33 5.35 -2.66 3.7 -3 2 C-2.01 2 -1.02 2 0 2 C0 1.34 0 0.68 0 0 Z " fill="#333333" transform="translate(65,111)"/>
<path d="M0 0 C0.66 0.33 1.32 0.66 2 1 C2 3.64 2 6.28 2 9 C0.68 9.33 -0.64 9.66 -2 10 C-3 7 -3 7 -2 4 C-1.34 4 -0.68 4 0 4 C0 2.68 0 1.36 0 0 Z " fill="#555E66" transform="translate(221,85)"/>
<path d="M0 0 C1.98 0.495 1.98 0.495 4 1 C4.33 3.64 4.66 6.28 5 9 C4.01 9 3.02 9 2 9 C0.50178941 5.62902617 0 3.79557881 0 0 Z " fill="#596168" transform="translate(213,81)"/>
<path d="M0 0 C0.66 0 1.32 0 2 0 C3.85776765 3.13498292 4.20140476 5.37471432 4 9 C3.34 9 2.68 9 2 9 C2 8.34 2 7.68 2 7 C1.01 6.67 0.02 6.34 -1 6 C-1.042721 4.33388095 -1.04063832 2.66617115 -1 1 C-0.67 0.67 -0.34 0.34 0 0 Z " fill="#51646E" transform="translate(85,20)"/>
<path d="M0 0 C1.65 0.33 3.3 0.66 5 1 C3.64531705 5.87685861 1.28324091 7.48592381 -3 10 C-3 7 -3 7 -1 4.8125 C-0.34 4.214375 0.32 3.61625 1 3 C0.67 2.01 0.34 1.02 0 0 Z " fill="#444C51" transform="translate(78,80)"/>
<path d="M0 0 C0.99 0.33 1.98 0.66 3 1 C3 2.65 3 4.3 3 6 C2.34 6 1.68 6 1 6 C0.67 6.99 0.34 7.98 0 9 C-1.125 7.3125 -1.125 7.3125 -2 5 C-1.125 2.25 -1.125 2.25 0 0 Z " fill="#515A60" transform="translate(140,81)"/>
<path d="M0 0 C2.4375 0.75 2.4375 0.75 5 2 C6.32284898 4.92916561 6.04059132 5.87822605 5 9 C4.01 8.67 3.02 8.34 2 8 C2.33 6.68 2.66 5.36 3 4 C2.67 4.33 2.34 4.66 2 5 C1.01 4.01 0.02 3.02 -1 2 C-0.67 1.34 -0.34 0.68 0 0 Z " fill="#556673" transform="translate(16,79)"/>
<path d="M0 0 C0.66 0 1.32 0 2 0 C2.06058594 0.59167969 2.12117188 1.18335938 2.18359375 1.79296875 C2.62012371 5.90978208 3.08671346 9.95544533 4 14 C0.05536417 10.22687008 0.05536417 10.22687008 -0.09765625 6.8359375 C-0.08605469 6.02382813 -0.07445312 5.21171875 -0.0625 4.375 C-0.05347656 3.55773438 -0.04445312 2.74046875 -0.03515625 1.8984375 C-0.02355469 1.27195313 -0.01195312 0.64546875 0 0 Z " fill="#D59B69" transform="translate(33,52)"/>
<path d="M0 0 C2.64 0 5.28 0 8 0 C8.33 0.99 8.66 1.98 9 3 C8.34 3.66 7.68 4.32 7 5 C3.875 4.625 3.875 4.625 1 4 C0.67 2.68 0.34 1.36 0 0 Z " fill="#42494D" transform="translate(194,57)"/>
<path d="M0 0 C0.33 0 0.66 0 1 0 C1.04898438 0.60328125 1.09796875 1.2065625 1.1484375 1.828125 C1.22320312 2.62734375 1.29796875 3.4265625 1.375 4.25 C1.44460937 5.03890625 1.51421875 5.8278125 1.5859375 6.640625 C1.88374809 9.03675519 1.88374809 9.03675519 3.1015625 11.109375 C4 13 4 13 3 16 C2.01 15.67 1.02 15.34 0 15 C0 10.05 0 5.1 0 0 Z " fill="#5A6978" transform="translate(0,44)"/>
<path d="M0 0 C2.97 0.495 2.97 0.495 6 1 C6.33 2.65 6.66 4.3 7 6 C5.35 5.67 3.7 5.34 2 5 C2 4.01 2 3.02 2 2 C1.34 2 0.68 2 0 2 C0 1.34 0 0.68 0 0 Z " fill="#D68648" transform="translate(23,42)"/>
<path d="M0 0 C0.66 0.66 1.32 1.32 2 2 C1.9375 4 1.9375 4 1 6 C-1.5625 7.25 -1.5625 7.25 -4 8 C-4.66 7.34 -5.32 6.68 -6 6 C-5.38125 5.7525 -4.7625 5.505 -4.125 5.25 C-1.64931313 3.79371361 -1.04874998 2.62187494 0 0 Z " fill="#222025" transform="translate(230,111)"/>
<path d="M0 0 C5.75 1.625 5.75 1.625 8 5 C1.25 5.125 1.25 5.125 -1 4 C-0.67 2.68 -0.34 1.36 0 0 Z " fill="#222222" transform="translate(155,113)"/>
<path d="M0 0 C0.33 0.66 0.66 1.32 1 2 C1.66 2.33 2.32 2.66 3 3 C2.67 4.32 2.34 5.64 2 7 C0.35 6.67 -1.3 6.34 -3 6 C-2.625 3.5625 -2.625 3.5625 -2 1 C-1.34 0.67 -0.68 0.34 0 0 Z " fill="#28282A" transform="translate(294,106)"/>
<path d="M0 0 C0.268125 0.639375 0.53625 1.27875 0.8125 1.9375 C1.88667752 4.33131686 1.88667752 4.33131686 5 5 C5.33 4.34 5.66 3.68 6 3 C6 4.65 6 6.3 6 8 C4.02 8 2.04 8 0 8 C-1.43088528 5.13822943 -0.59991697 3.06624227 0 0 Z " fill="#3F464C" transform="translate(307,90)"/>
<path d="M0 0 C0.99 0.33 1.98 0.66 3 1 C3 2.65 3 4.3 3 6 C1.02 6.33 -0.96 6.66 -3 7 C-3 5.68 -3 4.36 -3 3 C-2.34 3 -1.68 3 -1 3 C-0.67 2.01 -0.34 1.02 0 0 Z " fill="#232325" transform="translate(258,112)"/>
<path d="M0 0 C-0.33 1.32 -0.66 2.64 -1 4 C-3.97 4 -6.94 4 -10 4 C-10 3.34 -10 2.68 -10 2 C-3.375 0 -3.375 0 0 0 Z " fill="#2D4148" transform="translate(202,70)"/>
<path d="M0 0 C1.65 0 3.3 0 5 0 C4.67 2.31 4.34 4.62 4 7 C2 5.75 2 5.75 0 4 C0 2.68 0 1.36 0 0 Z " fill="#50585B" transform="translate(121,58)"/>
<path d="M0 0 C2.31 0.33 4.62 0.66 7 1 C6.67 2.65 6.34 4.3 6 6 C4.35 6 2.7 6 1 6 C0.67 4.02 0.34 2.04 0 0 Z " fill="#E59B46" transform="translate(32,33)"/>
<path d="M0 0 C0.99 0.33 1.98 0.66 3 1 C2.46930939 4.82097239 1.50298434 7.06171403 -1 10 C-0.979375 9.071875 -0.95875 8.14375 -0.9375 7.1875 C-0.84230396 3.97713989 -0.84230396 3.97713989 -2 1 C-1.34 0.67 -0.68 0.34 0 0 Z " fill="#AC8C6D" transform="translate(72,21)"/>
<path d="M0 0 C2.31 0 4.62 0 7 0 C7.33 1.32 7.66 2.64 8 4 C5.69 4 3.38 4 1 4 C0.67 2.68 0.34 1.36 0 0 Z " fill="#4A5155" transform="translate(295,94)"/>
<path d="M0 0 C-1.24735567 0.6509259 -2.49801832 1.29551669 -3.75 1.9375 C-4.44609375 2.29714844 -5.1421875 2.65679687 -5.859375 3.02734375 C-7.94433237 3.97470577 -9.72734873 4.69920792 -12 5 C-12.66 4.34 -13.32 3.68 -14 3 C-12.23358317 2.3012307 -10.46167336 1.61633417 -8.6875 0.9375 C-7.20830078 0.36322266 -7.20830078 0.36322266 -5.69921875 -0.22265625 C-3 -1 -3 -1 0 0 Z " fill="#434E55" transform="translate(72,92)"/>
<path d="M0 0 C1.9451 2.91765 2.45276317 4.62537285 3 8 C3.33 7.01 3.66 6.02 4 5 C4 6.65 4 8.3 4 10 C2.68 9.67 1.36 9.34 0 9 C-1.125 2.25 -1.125 2.25 0 0 Z " fill="#51565E" transform="translate(198,88)"/>
<path d="M0 0 C2.3431213 0.25561323 4.67843403 0.59270772 7 1 C7.33 1.66 7.66 2.32 8 3 C7.34 3.66 6.68 4.32 6 5 C3.375 4.625 3.375 4.625 1 4 C0.67 2.68 0.34 1.36 0 0 Z " fill="#4B545C" transform="translate(164,81)"/>
<path d="M0 0 C2.475 0.99 2.475 0.99 5 2 C5 1.34 5 0.68 5 0 C6.65 0.33 8.3 0.66 10 1 C9.67 1.66 9.34 2.32 9 3 C7.0625 3.5625 7.0625 3.5625 5 4 C4.01 4.495 4.01 4.495 3 5 C2.01 4.34 1.02 3.68 0 3 C0 2.01 0 1.02 0 0 Z " fill="#3F474B" transform="translate(105,81)"/>
<path d="M0 0 C0.33 0.66 0.66 1.32 1 2 C1.99 2 2.98 2 4 2 C4.33 1.34 4.66 0.68 5 0 C5.33 1.65 5.66 3.3 6 5 C3 6 3 6 0 6 C-0.38218767 4.34385343 -0.71395102 2.67542976 -1 1 C-0.67 0.67 -0.34 0.34 0 0 Z " fill="#404C53" transform="translate(1,58)"/>
<path d="M0 0 C0.66 0 1.32 0 2 0 C1.61121002 2.81872737 1.29189635 3.77195598 -1 5.5625 C-1.66 6.036875 -2.32 6.51125 -3 7 C-3.33 7.99 -3.66 8.98 -4 10 C-4.66 10 -5.32 10 -6 10 C-4.63312778 6.01328937 -2.84804907 3.11505367 0 0 Z " fill="#D29259" transform="translate(40,41)"/>
<path d="M0 0 C0.66 0.33 1.32 0.66 2 1 C2.99 1.33 3.98 1.66 5 2 C5.66 2.66 6.32 3.32 7 4 C6.34 4 5.68 4 5 4 C5 4.66 5 5.32 5 6 C4.01 6.33 3.02 6.66 2 7 C1.01 5.02 0.02 3.04 -1 1 C-0.67 0.67 -0.34 0.34 0 0 Z " fill="#343435" transform="translate(217,112)"/>
<path d="M0 0 C1.65 0 3.3 0 5 0 C6.31223496 3.93670488 5.24296256 6.12488144 4 10 C3.67 10 3.34 10 3 10 C3 7.36 3 4.72 3 2 C2.01 2.33 1.02 2.66 0 3 C0 2.01 0 1.02 0 0 Z " fill="#201F20" transform="translate(78,109)"/>
<path d="M0 0 C2 2 2 2 2.125 5.125 C2.08375 6.07375 2.0425 7.0225 2 8 C0.0625 7.25 0.0625 7.25 -2 6 C-2.75 3.875 -2.75 3.875 -3 2 C-2.34 2 -1.68 2 -1 2 C-0.67 1.34 -0.34 0.68 0 0 Z " fill="#465054" transform="translate(176,66)"/>
<path d="M0 0 C1.65 0.33 3.3 0.66 5 1 C5 2.32 5 3.64 5 5 C3.35 5.33 1.7 5.66 0 6 C-1.125 2.25 -1.125 2.25 0 0 Z " fill="#3E4F52" transform="translate(116,56)"/>
<path d="M0 0 C2.475 0.495 2.475 0.495 5 1 C5 2.65 5 4.3 5 6 C2.525 5.01 2.525 5.01 0 4 C0 2.68 0 1.36 0 0 Z " fill="#DF8D44" transform="translate(52,28)"/>
<path d="M0 0 C-2.39763185 2.39763185 -3.33273498 2.34280586 -6.625 2.625 C-7.44226562 2.69976562 -8.25953125 2.77453125 -9.1015625 2.8515625 C-9.72804687 2.90054687 -10.35453125 2.94953125 -11 3 C-11 2.34 -11 1.68 -11 1 C-6.92630576 -1.03684712 -4.41062136 -1.0257259 0 0 Z " fill="#46545B" transform="translate(44,6)"/>
<path d="M0 0 C0.99 0 1.98 0 3 0 C3 2.31 3 4.62 3 7 C2.01 7.33 1.02 7.66 0 8 C-0.33 7.34 -0.66 6.68 -1 6 C-0.34 6 0.32 6 1 6 C1 5.34 1 4.68 1 4 C0.34 3.67 -0.32 3.34 -1 3 C-0.67 2.01 -0.34 1.02 0 0 Z " fill="#252528" transform="translate(219,107)"/>
<path d="M0 0 C2.97 0.495 2.97 0.495 6 1 C6 1.99 6 2.98 6 4 C3.525 3.01 3.525 3.01 1 2 C1.33 2.99 1.66 3.98 2 5 C1.01 5 0.02 5 -1 5 C-0.67 3.35 -0.34 1.7 0 0 Z " fill="#2B2B2C" transform="translate(324,107)"/>
<path d="M0 0 C-0.99 0 -1.98 0 -3 0 C-3.66 1.32 -4.32 2.64 -5 4 C-6.32 3.34 -7.64 2.68 -9 2 C-8.67 1.01 -8.34 0.02 -8 -1 C-4.71293093 -2.47351372 -2.99288606 -1.8171094 0 0 Z " fill="#45515A" transform="translate(26,78)"/>
<path d="M0 0 C0 3.61029169 -0.96092582 6.55806676 -2 10 C-2.99 10 -3.98 10 -5 10 C-5 8.35 -5 6.7 -5 5 C-4.34 5 -3.68 5 -3 5 C-2.5359375 4.0409375 -2.5359375 4.0409375 -2.0625 3.0625 C-1 1 -1 1 0 0 Z " fill="#49545B" transform="translate(78,38)"/>
<path d="M0 0 C0.66 0.33 1.32 0.66 2 1 C1.67 2.32 1.34 3.64 1 5 C0.01 5 -0.98 5 -2 5 C-3.67099977 5.31088368 -5.33871537 5.64080332 -7 6 C-4.87944386 2.8191658 -3.36949443 1.68474722 0 0 Z " fill="#CA9F5A" transform="translate(70,24)"/>
<path d="M0 0 C2.35953094 2.35953094 2.49141413 3.77895617 3 7 C1.02 6.34 -0.96 5.68 -3 5 C-3 3.68 -3 2.36 -3 1 C-2.01 0.67 -1.02 0.34 0 0 Z " fill="#536370" transform="translate(78,12)"/>
<path d="M0 0 C0.66 0.33 1.32 0.66 2 1 C2 1.66 2 2.32 2 3 C2.99 3.33 3.98 3.66 5 4 C4.01 5.485 4.01 5.485 3 7 C0.525 6.01 0.525 6.01 -2 5 C-1.34 3.35 -0.68 1.7 0 0 Z " fill="#171617" transform="translate(304,112)"/>
<path d="M0 0 C0.66 0 1.32 0 2 0 C2.66 1.65 3.32 3.3 4 5 C2.68 6.32 1.36 7.64 0 9 C0 6.03 0 3.06 0 0 Z " fill="#2C2A2E" transform="translate(223,109)"/>
<path d="M0 0 C0.66 0.66 1.32 1.32 2 2 C1.625 4.125 1.625 4.125 1 6 C0.01 6 -0.98 6 -2 6 C-2.33 4.35 -2.66 2.7 -3 1 C-2.01 0.67 -1.02 0.34 0 0 Z " fill="#323332" transform="translate(60,106)"/>
<path d="M0 0 C0.45375 0.474375 0.9075 0.94875 1.375 1.4375 C2.93258204 3.09027808 2.93258204 3.09027808 5 4 C4.34 4.66 3.68 5.32 3 6 C0 6 0 6 -3 5 C-3 4.01 -3 3.02 -3 2 C-2.01 1.34 -1.02 0.68 0 0 Z " fill="#3F464A" transform="translate(151,85)"/>
<path d="M0 0 C0.99 0.66 1.98 1.32 3 2 C3 2.99 3 3.98 3 5 C1.02 5.33 -0.96 5.66 -3 6 C-1.125 1.125 -1.125 1.125 0 0 Z " fill="#50595E" transform="translate(68,64)"/>
<path d="M0 0 C0.99 0 1.98 0 3 0 C3.33 1.32 3.66 2.64 4 4 C2.02 4 0.04 4 -2 4 C-1.67 4.99 -1.34 5.98 -1 7 C-1.66 7 -2.32 7 -3 7 C-2.25 2.25 -2.25 2.25 0 0 Z " fill="#454F56" transform="translate(197,63)"/>
<path d="M0 0 C0 1.32 0 2.64 0 4 C-0.99 4 -1.98 4 -3 4 C-3.33 4.99 -3.66 5.98 -4 7 C-4.33 7 -4.66 7 -5 7 C-5 5.02 -5 3.04 -5 1 C-3 0 -3 0 0 0 Z " fill="#B6986B" transform="translate(26,21)"/>
<path d="M0 0 C0.99 0.66 1.98 1.32 3 2 C2.67 2.66 2.34 3.32 2 4 C2.66 4 3.32 4 4 4 C3 6 3 6 1 7 C-1.1385485 4.8614515 -1.42655063 3.86724686 -2 1 C-1.34 0.67 -0.68 0.34 0 0 Z " fill="#232223" transform="translate(137,112)"/>
<path d="M0 0 C0.99 0 1.98 0 3 0 C3 2.31 3 4.62 3 7 C2.01 7.495 2.01 7.495 1 8 C-0.35439668 5.29120665 -0.06501451 2.99066732 0 0 Z " fill="#343436" transform="translate(209,107)"/>
<path d="M0 0 C0.598125 0.350625 1.19625 0.70125 1.8125 1.0625 C0.8225 2.5475 0.8225 2.5475 -0.1875 4.0625 C-1.1775 3.7325 -2.1675 3.4025 -3.1875 3.0625 C-4.1775 3.0625 -5.1675 3.0625 -6.1875 3.0625 C-5.8575 2.0725 -5.5275 1.0825 -5.1875 0.0625 C-2.1875 -0.9375 -2.1875 -0.9375 0 0 Z " fill="#262726" transform="translate(181.1875,106.9375)"/>
<path d="M0 0 C0.66 0.33 1.32 0.66 2 1 C2.625 3.5625 2.625 3.5625 3 6 C1.35 5.67 -0.3 5.34 -2 5 C-1.34 3.35 -0.68 1.7 0 0 Z " fill="#464848" transform="translate(229,82)"/>
<path d="M0 0 C0.99 0.66 1.98 1.32 3 2 C2.34 3.32 1.68 4.64 1 6 C-0.32 5.67 -1.64 5.34 -3 5 C-2.01 3.35 -1.02 1.7 0 0 Z " fill="#3D494E" transform="translate(120,81)"/>
<path d="M0 0 C4.55737263 0.43820891 7.57653445 0.85041169 11 4 C4.6 4.49230769 4.6 4.49230769 1.5625 2 C1.046875 1.34 0.53125 0.68 0 0 Z " fill="#515C61" transform="translate(32,74)"/>
<path d="M0 0 C0.625 1.875 0.625 1.875 1 4 C-1.35953094 6.35953094 -2.77895617 6.49141413 -6 7 C-5.34 5.35 -4.68 3.7 -4 2 C-3.01 2 -2.02 2 -1 2 C-0.67 1.34 -0.34 0.68 0 0 Z " fill="#3D4347" transform="translate(126,61)"/>
<path d="M0 0 C0.33 0 0.66 0 1 0 C1.36923077 5.41538462 1.36923077 5.41538462 -0.5 8.375 C-0.995 8.91125 -1.49 9.4475 -2 10 C-2.98120464 6.94736336 -2.98120464 5.05263664 -2 2 C-1.34 2 -0.68 2 0 2 C0 1.34 0 0.68 0 0 Z " fill="#4B5357" transform="translate(72,49)"/>
<path d="M0 0 C0.66 0 1.32 0 2 0 C2.33 1.98 2.66 3.96 3 6 C2.01 6.495 2.01 6.495 1 7 C0.01 6.34 -0.98 5.68 -2 5 C-1.34 3.35 -0.68 1.7 0 0 Z " fill="#303031" transform="translate(106,112)"/>
<path d="M0 0 C0.33 1.98 0.66 3.96 1 6 C-0.32 6.33 -1.64 6.66 -3 7 C-3 5.02 -3 3.04 -3 1 C-1 0 -1 0 0 0 Z " fill="#475054" transform="translate(188,91)"/>
<path d="M0 0 C2.31 0 4.62 0 7 0 C6.01 1.485 6.01 1.485 5 3 C1.875 3.1875 1.875 3.1875 -1 3 C-0.67 2.01 -0.34 1.02 0 0 Z " fill="#535A5F" transform="translate(130,89)"/>
<path d="M0 0 C0.99 0.33 1.98 0.66 3 1 C3 2.32 3 3.64 3 5 C1.68 5 0.36 5 -1 5 C-1.33 3.68 -1.66 2.36 -2 1 C-1.34 0.67 -0.68 0.34 0 0 Z " fill="#DF8B44" transform="translate(42,29)"/>
<path d="M0 0 C0.99 0.33 1.98 0.66 3 1 C2.67 2.32 2.34 3.64 2 5 C0.35 4.67 -1.3 4.34 -3 4 C-2.67 3.01 -2.34 2.02 -2 1 C-1.34 0.67 -0.68 0.34 0 0 Z " fill="#1F2029" transform="translate(264,113)"/>
<path d="M0 0 C2.0625 0.4375 2.0625 0.4375 4 1 C4 1.99 4 2.98 4 4 C3.01 4 2.02 4 1 4 C0.67 4.99 0.34 5.98 0 7 C-0.38133299 5.0085944 -0.71325582 3.00720923 -1 1 C-0.67 0.67 -0.34 0.34 0 0 Z " fill="#506068" transform="translate(111,83)"/>
<path d="M0 0 C1.32 0.33 2.64 0.66 4 1 C4.33 2.32 4.66 3.64 5 5 C2.69 4.67 0.38 4.34 -2 4 C-1.34 2.68 -0.68 1.36 0 0 Z " fill="#536167" transform="translate(101,81)"/>
<path d="M0 0 C0.99 0.33 1.98 0.66 3 1 C3 3.64 3 6.28 3 9 C0.9754262 7.06745228 -0.42105792 5.36841312 -2 3 C-1.34 2.01 -0.68 1.02 0 0 Z " fill="#56646C" transform="translate(4,62)"/>
<path d="M0 0 C0.66 0.33 1.32 0.66 2 1 C2.625 3.0625 2.625 3.0625 3 5 C1.68 5.33 0.36 5.66 -1 6 C-1.33 4.35 -1.66 2.7 -2 1 C-1.34 0.67 -0.68 0.34 0 0 Z " fill="#535B64" transform="translate(117,60)"/>
<path d="M0 0 C0.99 0.99 1.98 1.98 3 3 C2.01 3 1.02 3 0 3 C0.33 3.99 0.66 4.98 1 6 C-0.32 5.67 -1.64 5.34 -3 5 C-3 4.01 -3 3.02 -3 2 C-2.34 2.33 -1.68 2.66 -1 3 C-0.67 2.01 -0.34 1.02 0 0 Z " fill="#3C474E" transform="translate(75,10)"/>
<path d="M0 0 C0.99 0 1.98 0 3 0 C2.67 2.31 2.34 4.62 2 7 C1.34 6.67 0.68 6.34 0 6 C0 4.02 0 2.04 0 0 Z " fill="#313130" transform="translate(161,110)"/>
<path d="M0 0 C0.66 0.66 1.32 1.32 2 2 C1.67 2.99 1.34 3.98 1 5 C-1.0625 5.6875 -1.0625 5.6875 -3 6 C-2.625 3.5625 -2.625 3.5625 -2 1 C-1.34 0.67 -0.68 0.34 0 0 Z " fill="#1E1D1D" transform="translate(249,109)"/>
<path d="M0 0 C1.32 0.66 2.64 1.32 4 2 C4 2.66 4 3.32 4 4 C2.02 4.33 0.04 4.66 -2 5 C-1.34 3.35 -0.68 1.7 0 0 Z " fill="#435058" transform="translate(262,92)"/>
<path d="M0 0 C1.32 1.32 2.64 2.64 4 4 C3.67 4.99 3.34 5.98 3 7 C2.01 7 1.02 7 0 7 C-0.38133299 5.0085944 -0.71325582 3.00720923 -1 1 C-0.67 0.67 -0.34 0.34 0 0 Z " fill="#41484E" transform="translate(145,91)"/>
<path d="M0 0 C1.65 0 3.3 0 5 0 C5 0.99 5 1.98 5 3 C3.02 3.33 1.04 3.66 -1 4 C-0.67 2.68 -0.34 1.36 0 0 Z " fill="#506472" transform="translate(68,86)"/>
<path d="M0 0 C1.98 0 3.96 0 6 0 C5.34 1.65 4.68 3.3 4 5 C3.01 5 2.02 5 1 5 C0.67 3.35 0.34 1.7 0 0 Z " fill="#425158" transform="translate(63,85)"/>
<path d="M0 0 C1.485 0.99 1.485 0.99 3 2 C2.34 4.31 1.68 6.62 1 9 C0.34 8.67 -0.32 8.34 -1 8 C-0.67 5.36 -0.34 2.72 0 0 Z " fill="#525E66" transform="translate(240,83)"/>
<path d="M0 0 C0.33 0.99 0.66 1.98 1 3 C-2 4 -2 4 -4.125 3.1875 C-6 2 -6 2 -7 0 C-4.3333581 -1.33332095 -2.83319697 -0.67102033 0 0 Z " fill="#3E474F" transform="translate(211,82)"/>
<path d="M0 0 C1.98 0.495 1.98 0.495 4 1 C3.67 2.32 3.34 3.64 3 5 C1.68 4.34 0.36 3.68 -1 3 C-0.67 2.01 -0.34 1.02 0 0 Z " fill="#A7725C" transform="translate(11,36)"/>
<path d="M0 0 C0.99 0.33 1.98 0.66 3 1 C3 2.32 3 3.64 3 5 C1.68 5 0.36 5 -1 5 C-0.67 3.35 -0.34 1.7 0 0 Z " fill="#DD8846" transform="translate(63,33)"/>
<path d="M0 0 C0.33 0 0.66 0 1 0 C1.33 1.65 1.66 3.3 2 5 C2.99 5.33 3.98 5.66 5 6 C5 6.66 5 7.32 5 8 C0.32307692 6.52307692 0.32307692 6.52307692 -1.3125 3.875 C-1.539375 3.25625 -1.76625 2.6375 -2 2 C-1.34 2 -0.68 2 0 2 C0 1.34 0 0.68 0 0 Z " fill="#D5A371" transform="translate(51,27)"/>
<path d="M0 0 C0 0.66 0 1.32 0 2 C1.32 2.33 2.64 2.66 4 3 C4 3.33 4 3.66 4 4 C1.36 4 -1.28 4 -4 4 C-4 3.01 -4 2.02 -4 1 C-2 0 -2 0 0 0 Z " fill="#373634" transform="translate(169,108)"/>
<path d="M0 0 C0.99 0 1.98 0 3 0 C3.33 1.98 3.66 3.96 4 6 C3.01 6.495 3.01 6.495 2 7 C0 5 0 5 -0.125 2.375 C-0.08375 1.59125 -0.0425 0.8075 0 0 Z " fill="#201F20" transform="translate(111,106)"/>
<path d="M0 0 C1.485 0.99 1.485 0.99 3 2 C2.67 3.32 2.34 4.64 2 6 C1.01 5.67 0.02 5.34 -1 5 C-0.67 3.35 -0.34 1.7 0 0 Z " fill="#535E68" transform="translate(148,81)"/>
<path d="M0 0 C2.97 0.495 2.97 0.495 6 1 C6 1.99 6 2.98 6 4 C5.01 3.67 4.02 3.34 3 3 C3 2.34 3 1.68 3 1 C2.34 1 1.68 1 1 1 C1 1.66 1 2.32 1 3 C0.01 2.67 -0.98 2.34 -2 2 C-1.34 2 -0.68 2 0 2 C0 1.34 0 0.68 0 0 Z " fill="#576066" transform="translate(101,64)"/>
<path d="M0 0 C0.99 0.33 1.98 0.66 3 1 C3.33 2.65 3.66 4.3 4 6 C3.01 6.33 2.02 6.66 1 7 C0.67 4.69 0.34 2.38 0 0 Z " fill="#3D4A4E" transform="translate(138,58)"/>
<path d="M0 0 C2.64 0 5.28 0 8 0 C8 1.32 8 2.64 8 4 C7.01 4 6.02 4 5 4 C4.67 3.34 4.34 2.68 4 2 C1.98330173 0.86649466 1.98330173 0.86649466 0 0 Z " fill="#2E3439" transform="translate(182,57)"/>
<path d="M0 0 C0 0.99 0 1.98 0 3 C-1.65 3 -3.3 3 -5 3 C-5.33 2.01 -5.66 1.02 -6 0 C-3 -1 -3 -1 0 0 Z " fill="#CD9545" transform="translate(57,23)"/>
<path d="M0 0 C0.66 0.33 1.32 0.66 2 1 C2 2.32 2 3.64 2 5 C1.01 5 0.02 5 -1 5 C-1.33 4.01 -1.66 3.02 -2 2 C-1.34 1.34 -0.68 0.68 0 0 Z " fill="#414E50" transform="translate(144,69)"/>
<path d="M0 0 C0.99 0 1.98 0 3 0 C3 1.32 3 2.64 3 4 C2.01 3.67 1.02 3.34 0 3 C0 2.01 0 1.02 0 0 Z " fill="#42484D" transform="translate(124,70)"/>
<path d="M0 0 C0.66 0 1.32 0 2 0 C1.67 0.99 1.34 1.98 1 3 C0.67 2.01 0.34 1.02 0 0 Z " fill="#1C1C1C" transform="translate(36,116)"/>
<path d="M0 0 C0 3 0 3 0 3 Z " fill="#2B2B2B" transform="translate(135,110)"/>
<path d="M0 0 C1 4 1 4 1 4 Z " fill="#252525" transform="translate(268,110)"/>
<path d="M0 0 C0.99 0.495 0.99 0.495 2 1 C1.01 1.495 1.01 1.495 0 2 C0 1.34 0 0.68 0 0 Z " fill="#00002A" transform="translate(302,118)"/>
<path d="" fill="#313131" transform="translate(0,0)"/>
<path d="M0 0 C2 1 2 1 2 1 Z " fill="#202020" transform="translate(327,119)"/>
<path d="M0 0 C2 1 2 1 2 1 Z " fill="#201010" transform="translate(284,118)"/>
<path d="" fill="#000000" transform="translate(0,0)"/>
<path d="" fill="#202020" transform="translate(0,0)"/>
<path d="" fill="#000000" transform="translate(0,0)"/>
<path d="M0 0 C2 1 2 1 2 1 Z " fill="#00002A" transform="translate(103,113)"/>
<path d="" fill="#393939" transform="translate(0,0)"/>
<path d="" fill="#000000" transform="translate(0,0)"/>
<path d="" fill="#2A2A2A" transform="translate(0,0)"/>
<path d="" fill="#202020" transform="translate(0,0)"/>
<path d="" fill="#151515" transform="translate(0,0)"/>
<path d="" fill="#000000" transform="translate(0,0)"/>
<path d="M0 0 C2 1 2 1 2 1 Z " fill="#000000" transform="translate(128,112)"/>
<path d="M0 0 C2 1 2 1 2 1 Z " fill="#202020" transform="translate(316,106)"/>
<path d="" fill="#191919" transform="translate(0,0)"/>
<path d="M0 0 C2 1 2 1 2 1 Z " fill="#000000" transform="translate(71,106)"/>
<path d="M0 0 C2 1 2 1 2 1 Z " fill="#000000" transform="translate(95,105)"/>
<path d="" fill="#597373" transform="translate(0,0)"/>
<path d="" fill="#333333" transform="translate(0,0)"/>
<path d="" fill="#000000" transform="translate(0,0)"/>
<path d="" fill="#808080" transform="translate(0,0)"/>
<path d="" fill="#000000" transform="translate(0,0)"/>
<path d="" fill="#202020" transform="translate(0,0)"/>
<path d="" fill="#000000" transform="translate(0,0)"/>
<path d="" fill="#000000" transform="translate(0,0)"/>
<path d="" fill="#404040" transform="translate(0,0)"/>
<path d="" fill="#333333" transform="translate(0,0)"/>
<path d="" fill="#000000" transform="translate(0,0)"/>
<path d="" fill="#202020" transform="translate(0,0)"/>
<path d="" fill="#000000" transform="translate(0,0)"/>
<path d="" fill="#000000" transform="translate(0,0)"/>
<path d="" fill="#000000" transform="translate(0,0)"/>
<path d="" fill="#000000" transform="translate(0,0)"/>
<path d="" fill="#333333" transform="translate(0,0)"/>
<path d="" fill="#000000" transform="translate(0,0)"/>
<path d="" fill="#000000" transform="translate(0,0)"/>
<path d="" fill="#000000" transform="translate(0,0)"/>
<path d="" fill="#404040" transform="translate(0,0)"/>
<path d="" fill="#404040" transform="translate(0,0)"/>
<path d="" fill="#333333" transform="translate(0,0)"/>
<path d="" fill="#333333" transform="translate(0,0)"/>
<path d="" fill="#242424" transform="translate(0,0)"/>
<path d="" fill="#000000" transform="translate(0,0)"/>
<path d="" fill="#333333" transform="translate(0,0)"/>
<path d="" fill="#000000" transform="translate(0,0)"/>
<path d="" fill="#000000" transform="translate(0,0)"/>
<path d="" fill="#402040" transform="translate(0,0)"/>
<path d="" fill="#000000" transform="translate(0,0)"/>
<path d="" fill="#000000" transform="translate(0,0)"/>
<path d="" fill="#333333" transform="translate(0,0)"/>
<path d="" fill="#555555" transform="translate(0,0)"/>
<path d="" fill="#000000" transform="translate(0,0)"/>
<path d="" fill="#000000" transform="translate(0,0)"/>
<path d="" fill="#242424" transform="translate(0,0)"/>
<path d="" fill="#000000" transform="translate(0,0)"/>
<path d="" fill="#000000" transform="translate(0,0)"/>
<path d="" fill="#000000" transform="translate(0,0)"/>
<path d="" fill="#000000" transform="translate(0,0)"/>
<path d="" fill="#333333" transform="translate(0,0)"/>
<path d="" fill="#000000" transform="translate(0,0)"/>
<path d="" fill="#202020" transform="translate(0,0)"/>
<path d="" fill="#2A2A2A" transform="translate(0,0)"/>
<path d="" fill="#242424" transform="translate(0,0)"/>
<path d="" fill="#333333" transform="translate(0,0)"/>
<path d="" fill="#555555" transform="translate(0,0)"/>
<path d="" fill="#000000" transform="translate(0,0)"/>
<path d="" fill="#333333" transform="translate(0,0)"/>
<path d="" fill="#404040" transform="translate(0,0)"/>
<path d="" fill="#000000" transform="translate(0,0)"/>
<path d="" fill="#555555" transform="translate(0,0)"/>
<path d="" fill="#404040" transform="translate(0,0)"/>
<path d="" fill="#000000" transform="translate(0,0)"/>
<path d="" fill="#000000" transform="translate(0,0)"/>
<path d="" fill="#000000" transform="translate(0,0)"/>
<path d="" fill="#404040" transform="translate(0,0)"/>
<path d="" fill="#000000" transform="translate(0,0)"/>
<path d="" fill="#000000" transform="translate(0,0)"/>
<path d="" fill="#000000" transform="translate(0,0)"/>
<path d="" fill="#555555" transform="translate(0,0)"/>
<path d="" fill="#404040" transform="translate(0,0)"/>
<path d="" fill="#202020" transform="translate(0,0)"/>
<path d="" fill="#000000" transform="translate(0,0)"/>
<path d="" fill="#000000" transform="translate(0,0)"/>
<path d="" fill="#000000" transform="translate(0,0)"/>
<path d="" fill="#000000" transform="translate(0,0)"/>
<path d="" fill="#000000" transform="translate(0,0)"/>
<path d="" fill="#333333" transform="translate(0,0)"/>
<path d="" fill="#000000" transform="translate(0,0)"/>
<path d="" fill="#555555" transform="translate(0,0)"/>
<path d="" fill="#000000" transform="translate(0,0)"/>
<path d="" fill="#2A2A2A" transform="translate(0,0)"/>
<path d="" fill="#000000" transform="translate(0,0)"/>
<path d="" fill="#000000" transform="translate(0,0)"/>
<path d="" fill="#404040" transform="translate(0,0)"/>
<path d="" fill="#404040" transform="translate(0,0)"/>
<path d="" fill="#000000" transform="translate(0,0)"/>
<path d="" fill="#000000" transform="translate(0,0)"/>
<path d="" fill="#242449" transform="translate(0,0)"/>
<path d="" fill="#000000" transform="translate(0,0)"/>
<path d="" fill="#2A2A2A" transform="translate(0,0)"/>
<path d="" fill="#000000" transform="translate(0,0)"/>
<path d="" fill="#333333" transform="translate(0,0)"/>
<path d="" fill="#000000" transform="translate(0,0)"/>
<path d="" fill="#000000" transform="translate(0,0)"/>
<path d="" fill="#000000" transform="translate(0,0)"/>
<path d="" fill="#000000" transform="translate(0,0)"/>
<path d="" fill="#000000" transform="translate(0,0)"/>
<path d="" fill="#555555" transform="translate(0,0)"/>
<path d="" fill="#000000" transform="translate(0,0)"/>
<path d="" fill="#000000" transform="translate(0,0)"/>
<path d="" fill="#333333" transform="translate(0,0)"/>
<path d="" fill="#555555" transform="translate(0,0)"/>
<path d="" fill="#000000" transform="translate(0,0)"/>
<path d="" fill="#000000" transform="translate(0,0)"/>
<path d="" fill="#000000" transform="translate(0,0)"/>
<path d="" fill="#404040" transform="translate(0,0)"/>
<path d="" fill="#555555" transform="translate(0,0)"/>
<path d="" fill="#000000" transform="translate(0,0)"/>
<path d="" fill="#000000" transform="translate(0,0)"/>
<path d="" fill="#000000" transform="translate(0,0)"/>
<path d="" fill="#000000" transform="translate(0,0)"/>
<path d="" fill="#555555" transform="translate(0,0)"/>
<path d="" fill="#000000" transform="translate(0,0)"/>
<path d="" fill="#404040" transform="translate(0,0)"/>
<path d="" fill="#000000" transform="translate(0,0)"/>
<path d="" fill="#000000" transform="translate(0,0)"/>
<path d="" fill="#555555" transform="translate(0,0)"/>
<path d="" fill="#000000" transform="translate(0,0)"/>
<path d="" fill="#404040" transform="translate(0,0)"/>
<path d="" fill="#000000" transform="translate(0,0)"/>
<path d="" fill="#404040" transform="translate(0,0)"/>
<path d="" fill="#000000" transform="translate(0,0)"/>
<path d="" fill="#000080" transform="translate(0,0)"/>
<path d="" fill="#000000" transform="translate(0,0)"/>
<path d="" fill="#808080" transform="translate(0,0)"/>
<path d="" fill="#000000" transform="translate(0,0)"/>
<path d="" fill="#000000" transform="translate(0,0)"/>
<path d="" fill="#808080" transform="translate(0,0)"/>
<path d="" fill="#008080" transform="translate(0,0)"/>
<path d="" fill="#555555" transform="translate(0,0)"/>
<path d="" fill="#808080" transform="translate(0,0)"/>
<path d="" fill="#000000" transform="translate(0,0)"/>
<path d="" fill="#555555" transform="translate(0,0)"/>
<path d="" fill="#000000" transform="translate(0,0)"/>
<path d="" fill="#555555" transform="translate(0,0)"/>
<path d="" fill="#555555" transform="translate(0,0)"/>
<path d="" fill="#404040" transform="translate(0,0)"/>
<path d="" fill="#404040" transform="translate(0,0)"/>
<path d="" fill="#494949" transform="translate(0,0)"/>
<path d="" fill="#000000" transform="translate(0,0)"/>
<path d="" fill="#000000" transform="translate(0,0)"/>
<path d="" fill="#000000" transform="translate(0,0)"/>
<path d="" fill="#000000" transform="translate(0,0)"/>
<path d="" fill="#555555" transform="translate(0,0)"/>
<path d="" fill="#000000" transform="translate(0,0)"/>
<path d="" fill="#000000" transform="translate(0,0)"/>
<path d="" fill="#404040" transform="translate(0,0)"/>
<path d="" fill="#666666" transform="translate(0,0)"/>
<path d="" fill="#555555" transform="translate(0,0)"/>
<path d="" fill="#404040" transform="translate(0,0)"/>
<path d="" fill="#808080" transform="translate(0,0)"/>
<path d="" fill="#808080" transform="translate(0,0)"/>
<path d="" fill="#494949" transform="translate(0,0)"/>
<path d="" fill="#404040" transform="translate(0,0)"/>
<path d="" fill="#000000" transform="translate(0,0)"/>
<path d="" fill="#808080" transform="translate(0,0)"/>
<path d="" fill="#808080" transform="translate(0,0)"/>
<path d="" fill="#555555" transform="translate(0,0)"/>
<path d="" fill="#808080" transform="translate(0,0)"/>
<path d="" fill="#808080" transform="translate(0,0)"/>
<path d="" fill="#000000" transform="translate(0,0)"/>
<path d="" fill="#666666" transform="translate(0,0)"/>
<path d="" fill="#666666" transform="translate(0,0)"/>
<path d="" fill="#555555" transform="translate(0,0)"/>
<path d="" fill="#000000" transform="translate(0,0)"/>
<path d="" fill="#555555" transform="translate(0,0)"/>
<path d="" fill="#808080" transform="translate(0,0)"/>
<path d="" fill="#808080" transform="translate(0,0)"/>
<path d="" fill="#000000" transform="translate(0,0)"/>
<path d="" fill="#808080" transform="translate(0,0)"/>
<path d="" fill="#555555" transform="translate(0,0)"/>
<path d="" fill="#404040" transform="translate(0,0)"/>
<path d="" fill="#606060" transform="translate(0,0)"/>
<path d="" fill="#808080" transform="translate(0,0)"/>
<path d="" fill="#555555" transform="translate(0,0)"/>
<path d="" fill="#000000" transform="translate(0,0)"/>
<path d="" fill="#555555" transform="translate(0,0)"/>
<path d="" fill="#404080" transform="translate(0,0)"/>
<path d="" fill="#000000" transform="translate(0,0)"/>
<path d="" fill="#666666" transform="translate(0,0)"/>
<path d="" fill="#808080" transform="translate(0,0)"/>
<path d="" fill="#666666" transform="translate(0,0)"/>
<path d="" fill="#000000" transform="translate(0,0)"/>
<path d="" fill="#808080" transform="translate(0,0)"/>
<path d="" fill="#555555" transform="translate(0,0)"/>
<path d="" fill="#808080" transform="translate(0,0)"/>
<path d="" fill="#000000" transform="translate(0,0)"/>
<path d="" fill="#555555" transform="translate(0,0)"/>
<path d="" fill="#000000" transform="translate(0,0)"/>
<path d="" fill="#808080" transform="translate(0,0)"/>
<path d="" fill="#808080" transform="translate(0,0)"/>
<path d="" fill="#000000" transform="translate(0,0)"/>
<path d="" fill="#404040" transform="translate(0,0)"/>
<path d="" fill="#000000" transform="translate(0,0)"/>
<path d="" fill="#555555" transform="translate(0,0)"/>
<path d="" fill="#000000" transform="translate(0,0)"/>
<path d="" fill="#000000" transform="translate(0,0)"/>
<path d="" fill="#000000" transform="translate(0,0)"/>
<path d="" fill="#808080" transform="translate(0,0)"/>
<path d="" fill="#555555" transform="translate(0,0)"/>
<path d="" fill="#808080" transform="translate(0,0)"/>
<path d="" fill="#000000" transform="translate(0,0)"/>
<path d="" fill="#333333" transform="translate(0,0)"/>
<path d="" fill="#000000" transform="translate(0,0)"/>
<path d="" fill="#808080" transform="translate(0,0)"/>
<path d="" fill="#000000" transform="translate(0,0)"/>
<path d="" fill="#000000" transform="translate(0,0)"/>
<path d="" fill="#808080" transform="translate(0,0)"/>
<path d="" fill="#555555" transform="translate(0,0)"/>
<path d="" fill="#000000" transform="translate(0,0)"/>
<path d="" fill="#000000" transform="translate(0,0)"/>
<path d="" fill="#000000" transform="translate(0,0)"/>
<path d="" fill="#808080" transform="translate(0,0)"/>
<path d="" fill="#000000" transform="translate(0,0)"/>
<path d="" fill="#000000" transform="translate(0,0)"/>
<path d="" fill="#808080" transform="translate(0,0)"/>
<path d="" fill="#555555" transform="translate(0,0)"/>
<path d="" fill="#808080" transform="translate(0,0)"/>
<path d="" fill="#000000" transform="translate(0,0)"/>
<path d="" fill="#404040" transform="translate(0,0)"/>
<path d="" fill="#000000" transform="translate(0,0)"/>
<path d="" fill="#000000" transform="translate(0,0)"/>
<path d="" fill="#404040" transform="translate(0,0)"/>
<path d="" fill="#808080" transform="translate(0,0)"/>
<path d="" fill="#000000" transform="translate(0,0)"/>
<path d="" fill="#404040" transform="translate(0,0)"/>
<path d="" fill="#404040" transform="translate(0,0)"/>
<path d="" fill="#555555" transform="translate(0,0)"/>
<path d="" fill="#408040" transform="translate(0,0)"/>
<path d="" fill="#000000" transform="translate(0,0)"/>
<path d="" fill="#808080" transform="translate(0,0)"/>
</svg>
